<?xml version="1.0" encoding="utf-8"?>
<!-- Generator: Adobe Illustrator 25.0.1, SVG Export Plug-In . SVG Version: 6.00 Build 0)  -->
<svg version="1.1" id="Layer_1" xmlns="http://www.w3.org/2000/svg" xmlns:xlink="http://www.w3.org/1999/xlink" x="0px" y="0px"
	 viewBox="0 0 347.2 112.7" style="enable-background:new 0 0 347.2 112.7;" xml:space="preserve">
<style type="text/css">
	.st0{fill-rule:evenodd;clip-rule:evenodd;fill:url(#SVGID_1_);}
	.st1{fill-rule:evenodd;clip-rule:evenodd;fill:#60B238;}
	.st2{fill:#2B2A29;}
	.st3{fill:#009FE2;}
	.st4{fill:url(#SVGID_2_);}
	.st5{fill:#898989;}
	.st6{fill:url(#SVGID_3_);}
</style>
<linearGradient id="SVGID_1_" gradientUnits="userSpaceOnUse" x1="4441.3701" y1="2810.6042" x2="4894.5903" y2="2810.6042" gradientTransform="matrix(0.24 0 0 0.24 -1049.85 -618.3)">
	<stop  offset="0" style="stop-color:#393185"/>
	<stop  offset="1" style="stop-color:#0082C9"/>
</linearGradient>
<path class="st0" d="M112.6,56.3V30.7l0,0l-0.2,0.5c-0.3,0.6-0.5,1.1-0.8,1.7V33c-0.3,0.6-0.6,1.2-0.9,1.7l0,0l-0.2,0.5l0,0
	l-0.8,1.4l-0.3,0.6c-0.2,0.4-0.4,0.8-0.7,1.2l-0.5,0.8c-0.2,0.3-0.4,0.7-0.6,1s-0.4,0.7-0.6,1l-0.5,0.8l-0.7,1.1l-0.5,0.7
	c-0.3,0.4-0.6,0.9-0.9,1.3l-0.3,0.5c-0.3,0.5-0.7,0.9-1,1.4l-0.3,0.4c-0.4,0.5-0.7,1-1.1,1.5l-0.2,0.2c-0.4,0.5-0.8,1-1.2,1.5
	l-0.2,0.2c-0.4,0.5-0.9,1.1-1.3,1.6l-0.1,0.1c-0.5,0.5-1,1.1-1.4,1.6l-0.1,0.1c-0.5,0.5-1,1.1-1.5,1.6l0,0c-0.5,0.5-1.1,1.1-1.6,1.6
	s-1,1-1.5,1.4l-0.4,0.4c-0.4,0.4-0.9,0.8-1.3,1.2l-0.2,0.2l-1.5,1.3l-0.4,0.3l-1.3,1.1l-0.3,0.3c-0.5,0.4-1,0.8-1.6,1.2l-0.4,0.3
	c-0.4,0.3-0.9,0.7-1.4,1l-0.3,0.2c-0.5,0.4-1.1,0.8-1.6,1.1L81.6,68l-1.3,1l-0.5,0.3c-0.5,0.3-1,0.7-1.6,1l-0.5,0.3l-1.2,0.7
	l-0.5,0.3l-1.7,1L74,72.9c-0.4,0.2-0.9,0.5-1.4,0.7L72,73.9l-1.5,0.8L70,74.9l-1.4,0.7L68,75.9l-1.3,0.6L66,76.8l-1.4,0.6l-0.8,0.3
	l-1.2,0.5l-0.6,0.2l-1.6,0.6l-0.7,0.3l-1.2,0.4L58,79.8l-1.6,0.5l-0.8,0.2l-1,0.3L53.7,81l-1.5,0.4l-0.9,0.2l-0.8,0.2l-1,0.2
	l-0.6,0.1c-0.7,0.1-1.3,0.3-2,0.4l-0.6,0.1L45,82.8l-0.4,0.1c-0.7,0.1-1.5,0.2-2.2,0.3l-0.5,0.1l-1.2,0.1h-0.5
	c-0.8,0.1-1.6,0.2-2.4,0.2h-0.2c-0.5,0-0.9,0.1-1.3,0.1H36c-1.4,0.1-2.8,0.1-4.2,0.2h-0.2c-1.4,0-2.8,0-4.2,0h-0.2
	c-1.4,0-2.8-0.1-4.2-0.2h-0.2c-1.4-0.1-2.8-0.3-4.3-0.5h-0.1c-4.4-0.6-8.7-1.5-12.9-2.7l0,0c9.4,19.5,29.1,31.9,50.8,32l0,0
	C87.4,112.4,112.5,87.3,112.6,56.3z M69.4,0H0v41.7c21.5-1.5,41.7-10.8,56.9-26C61.6,10.9,65.8,5.7,69.4,0z M83,22.8L82.9,23
	l-0.2,0.3l-1.1,1.5L81.4,25c-0.4,0.5-0.8,1-1.2,1.5l-0.2,0.2c-0.4,0.5-0.8,1-1.2,1.5l-0.2,0.2c-0.4,0.5-0.8,1-1.3,1.5l-0.1,0.1
	c-0.4,0.5-0.9,1-1.4,1.5l-0.1,0.1c-0.5,0.5-0.9,1-1.4,1.5l-0.1,0.1c-0.5,0.5-1,1-1.5,1.5s-1,1-1.5,1.4l-0.2,0.2
	c-0.5,0.5-0.9,0.9-1.4,1.3l-0.3,0.2L68,39.4l-0.2,0.1c-0.4,0.4-0.9,0.8-1.3,1.1L66.2,41l-1.4,1.2l-0.3,0.2c-0.5,0.4-1,0.8-1.5,1.1
	l-0.3,0.2c-0.5,0.3-0.9,0.7-1.4,1L61,44.9c-0.5,0.3-1,0.7-1.5,1l-0.5,0.3l-1.5,1l-0.4,0.2l-1.4,0.9l-0.4,0.3l-1.3,0.8l-0.5,0.2
	c-0.5,0.3-1,0.5-1.5,0.8l-0.6,0.3l-1.4,0.7l-0.6,0.3l-1.1,0.5L48,52.5c-0.5,0.2-0.9,0.4-1.4,0.7l-0.7,0.3L44.6,54l-0.8,0.3l-0.9,0.4
	l-1.1,0.4l-0.9,0.3L40,55.8l-1.3,0.5l-0.8,0.3l-0.8,0.3l-1.4,0.4L35,57.5l-1.4,0.4l-0.7,0.2l-1,0.3l-0.5,0.1l-1.7,0.4L29.1,59
	c-0.6,0.2-1.3,0.3-2,0.4h-0.3c-1.1,0.2-2.3,0.4-3.5,0.6h-0.2c-0.7,0.1-1.5,0.2-2.2,0.3h-0.1c-1.2,0.2-2.4,0.3-3.6,0.4h-0.1L14.9,61
	h-0.1c-4.9,0.3-9.7,0.2-14.6-0.3l0,0C0.1,59.3,0,57.8,0,56.3v-6.8c24.1,0.3,47.4-9.2,64.4-26.3c5.9-5.9,10.9-12.5,15-19.8
	C77.4,10,78.7,17.3,83,22.8z"/>
<path class="st1" d="M91.3,29.5c-0.2,0.3-0.4,0.5-0.6,0.8l-0.1,0.2c-0.4,0.6-0.8,1.1-1.2,1.7l-0.1,0.2c-0.4,0.6-0.8,1.1-1.3,1.7
	l-0.1,0.1c-0.4,0.6-0.9,1.1-1.3,1.7l-0.1,0.1l-1.4,1.6L85,37.6c-0.5,0.5-0.9,1.1-1.4,1.6l-0.1,0.1c-0.5,0.5-1,1.1-1.5,1.6l0,0.1
	c-0.5,0.5-1,1.1-1.6,1.6s-1,1-1.5,1.5l-0.3,0.3c-0.5,0.5-1,0.9-1.4,1.3L76.9,46c-0.4,0.4-0.9,0.8-1.3,1.2l-0.2,0.2
	c-0.5,0.4-1,0.8-1.5,1.3l-0.3,0.3c-0.5,0.4-1,0.8-1.6,1.2l-0.1,0.1l-1.5,1.2l-0.3,0.2c-0.5,0.4-1,0.7-1.5,1.1L67.9,53l-1.4,1
	L66,54.3c-0.4,0.3-0.9,0.6-1.3,0.8l-0.5,0.3l-1.6,1l-0.4,0.2c-0.5,0.3-0.9,0.5-1.4,0.8l-0.3,0.2c-0.5,0.3-1,0.6-1.6,0.8l-0.6,0.3
	c-0.5,0.3-1,0.5-1.5,0.8l-0.5,0.2l-1.3,0.6l-0.6,0.3c-0.5,0.2-1,0.5-1.5,0.7l-0.6,0.3l-1.2,0.5l-0.9,0.3L49,63l-0.7,0.3l-1.5,0.5
	L46.2,64c-0.4,0.1-0.8,0.3-1.2,0.4l-0.8,0.3l-1.3,0.4L42,65.4l-1.3,0.4c-0.3,0.1-0.7,0.2-1,0.3l-0.8,0.2l-1.4,0.3l-0.9,0.2l-1,0.2
	L35,67.1c-0.6,0.1-1.2,0.2-1.8,0.4l-0.5,0.1c-1.2,0.2-2.4,0.4-3.6,0.6h-0.3l-2.3,0.3h-0.1L25,68.5l0,0c-0.8,0.1-1.6,0.1-2.4,0.2
	h-0.4c-1.2,0.1-2.5,0.1-3.8,0.1l0,0c-0.9,0-1.7,0-2.6,0h-0.2c-1.3,0-2.6-0.1-3.9-0.1h-0.2c-2.1-0.1-4.3-0.3-6.4-0.6H5
	c-1.3-0.2-2.6-0.4-3.8-0.6l0,0c0.5,2.3,1.1,4.6,1.8,6.9h0.1l1.4,0.3l1,0.2l0.7,0.1c0.6,0.1,1.1,0.2,1.7,0.3l0.7,0.1l1,0.2l0.7,0.1
	l1,0.1l1.4,0.2l1,0.1l0.8,0.1l2.1,0.2h0.3l1.1,0.1h0.7h1H21h1h1.7h1.5h1h0.8h1l1.4-0.1l0.9-0.1l0.9-0.1l0.9-0.1l1.5-0.2l0.9-0.1
	l0.9-0.1l0.8-0.1l1.5-0.2l0.8-0.1l0.9-0.2l0.8-0.2l1.5-0.3l0.8-0.2l1-0.2l0.8-0.2l1.5-0.4l0.6-0.2l1.2-0.3l0.5-0.2l1.6-0.5l0.7-0.2
	l1.1-0.3l0.7-0.2l1.6-0.6l0.6-0.2c0.4-0.1,0.8-0.3,1.2-0.4l0.6-0.2c0.5-0.2,1-0.4,1.5-0.6l0.5-0.2l1.2-0.5l0.6-0.2l1.6-0.7l0.4-0.2
	c0.4-0.2,0.8-0.4,1.3-0.6l0.5-0.3l1.6-0.8l0.4-0.2l1.3-0.7l0.4-0.2l1.6-0.9l0.3-0.2l1.4-0.8l0.4-0.3l1.6-1l0.2-0.2
	c0.5-0.3,0.9-0.6,1.4-0.9l0.4-0.3c0.5-0.4,1-0.7,1.5-1.1l0.1-0.1l1.4-1.1l0.4-0.3l1.5-1.2l0.2-0.1l1.3-1.1l0.4-0.3
	c0.5-0.4,1-0.9,1.5-1.3l0.1-0.1c0.5-0.4,0.9-0.8,1.4-1.3l0.4-0.4c0.5-0.5,1-0.9,1.4-1.4s1-1,1.5-1.5l0.2-0.2l1.3-1.4l0.2-0.2
	c0.5-0.5,0.9-1,1.4-1.5l0.1-0.1c0.4-0.5,0.8-1,1.2-1.5l0.2-0.2c0.4-0.5,0.8-1,1.2-1.5l0.1-0.1c0.4-0.5,0.8-1.1,1.2-1.6l0.2-0.3
	l1-1.5l0.2-0.3c0.3-0.5,0.7-1,1-1.5l0.3-0.4l0.9-1.4l0.2-0.4c0.3-0.5,0.6-1,0.9-1.5l0.2-0.3c0.3-0.5,0.6-1.1,0.9-1.6l0.1-0.2
	L91.3,29.5L91.3,29.5z"/>
<path class="st2" d="M120.4,21.8v-8.1c0-0.7,0-1.3,0-1.7v-0.1c0-0.4-0.1-0.7-0.3-1.1c-0.2-0.3-0.6-0.4-0.9-0.5H119h-0.3
	c-0.1,0-0.2,0-0.2,0h-0.2c0,0-0.1,0-0.1,0c0,0-0.1-0.1-0.1-0.1c0-0.1,0-0.2,0.1-0.2c0.1,0,0.2,0,0.3,0h0.9c0.2,0,0.3,0,0.5,0h0.5
	h0.8h0.8h0.7h1h0.5c0.1,0,0.2,0,0.3,0c0.1,0,0.1,0.1,0.1,0.2c0,0.1,0,0.1-0.1,0.1c0,0-0.1,0-0.1,0h-0.1h-0.3l-0.3,0.1
	c-0.3,0-0.6,0.2-0.8,0.5c-0.2,0.3-0.2,0.7-0.3,1.1v0.1c0,0.4-0.1,1-0.1,1.7v8c-0.1,1.5,0.1,3,0.6,4.4c0.3,0.9,0.8,1.6,1.5,2.3
	c0.2,0.2,0.3,0.3,0.5,0.4c0.2,0.1,0.3,0.2,0.5,0.3c0.5,0.3,1,0.5,1.5,0.6c0.5,0.1,1.1,0.2,1.6,0.1c0.8,0,1.7-0.2,2.4-0.5
	c0.7-0.3,1.4-0.8,1.9-1.4c0.7-0.8,1.1-1.8,1.3-2.9c0.2-1.3,0.3-2.5,0.3-3.8v-7.6c0-0.7,0-1.3-0.1-1.7v-0.1c0-0.4-0.1-0.7-0.3-1.1
	c-0.2-0.3-0.6-0.4-0.9-0.5h-0.2h-0.3c-0.1,0-0.2,0-0.2,0h-0.2c0,0-0.1,0-0.1,0c0,0-0.1-0.1-0.1-0.1c0-0.1,0-0.2,0.1-0.2
	c0.1,0,0.2,0,0.3,0h0.6h0.6h0.6h0.7h0.7h0.6h0.6h0.4h0.4c0.1,0,0.2,0,0.3,0c0.1,0,0.1,0.1,0.1,0.2c0,0.1,0,0.1-0.1,0.1
	c0,0-0.1,0-0.1,0h-0.1h-0.2l-0.4,0.1c-0.3,0-0.6,0.2-0.7,0.5c-0.2,0.3-0.3,0.7-0.3,1.1v0.1c0,0.4-0.1,1-0.1,1.7v7.1
	c0,0.3,0,0.6,0,0.9c0,0.3,0,0.6,0,0.9c-0.1,1.2-0.3,2.3-0.6,3.5c-0.3,1.1-1,2.1-1.8,2.9l-0.6,0.5c-0.2,0.1-0.4,0.3-0.6,0.4
	c-0.7,0.4-1.6,0.8-2.4,0.9c-0.7,0.1-1.4,0.2-2.1,0.2c-0.5,0-1,0-1.5-0.1c-0.7-0.1-1.5-0.3-2.1-0.5c-0.4-0.2-0.7-0.3-1-0.5
	c-0.3-0.2-0.7-0.5-0.9-0.7c-0.7-0.7-1.3-1.6-1.7-2.6c-0.5-1.5-0.8-3-0.7-4.6l0,0L120.4,21.8z"/>
<path class="st2" d="M150.6,11.1v11.5c0,1.3,0,2.5,0,3.5c0,0.8,0,1.6,0.1,2.4c0,0.3,0.1,0.7,0.3,1c0.2,0.3,0.5,0.5,0.8,0.5h0.2h0.3
	h0.4h0.3c0.1,0,0.1,0,0.2,0c0,0,0,0.1,0,0.1c0,0.1,0,0.1-0.1,0.1c-0.1,0-0.2,0-0.3,0h-0.6h-0.9h-0.8h-0.8h-0.6h-0.7h-1.1h-0.5
	c-0.1,0-0.2,0-0.3,0c-0.1,0-0.1-0.1-0.1-0.1c0,0,0-0.1,0.1-0.1c0.1,0,0.1,0,0.2,0h0.2h0.2c0.1,0,0.1,0,0.2,0h0.2
	c0.2,0,0.5-0.2,0.6-0.4c0.1-0.3,0.2-0.7,0.2-1c0.1-0.8,0.1-1.6,0.1-2.4c0-1,0-2.2,0-3.5V11.1h-4c-0.6,0-1.2,0.1-1.9,0.2
	c-0.4,0.1-0.7,0.3-0.9,0.7c-0.1,0.2-0.3,0.4-0.3,0.5c-0.1,0.1-0.1,0.2-0.1,0.3c0,0.1-0.1,0.2-0.1,0.2c0,0-0.1,0-0.1,0
	c0,0-0.1,0-0.1-0.1c0-0.1,0-0.1,0-0.2c0-0.2,0-0.3,0.1-0.5c0.1-0.3,0.1-0.6,0.2-0.9l0,0c0,0,0,0,0-0.1c0.1-0.3,0.1-0.6,0.2-0.8
	c0.1-0.3,0.1-0.4,0.1-0.5c0,0,0-0.1,0-0.1V9.8c0-0.1,0-0.1,0.1-0.2c0-0.1,0.1-0.1,0.1-0.1c0.1,0,0.1,0,0.2,0l0.3,0.1l0.3,0.1
	l0.4,0.1c0.1,0,0.2,0,0.3,0h0.4h0.9c0.3,0,0.5,0,0.6,0h10.3c0.3,0,0.6,0,0.9,0h0.7h0.2h0.2l0.5-0.1h0.3c0.1,0,0.1,0,0.1,0.1
	c0,0.1,0,0.1,0,0.2c0,0.1,0,0.4,0,0.6c0,0.2,0,0.5,0,0.7v0.4c0,0.3,0,0.6,0,0.8c0,0.3,0,0.4,0,0.5c0,0.1,0,0.2-0.1,0.3
	c0,0.1-0.1,0.1-0.1,0.1c-0.1,0-0.1,0-0.1-0.1c0-0.1-0.1-0.2-0.1-0.4v-0.3c-0.1-0.4-0.4-0.8-0.7-1c-0.8-0.4-1.7-0.5-2.6-0.4l-3.5-0.1
	L150.6,11.1z"/>
<path class="st2" d="M169.9,11.1v11.5c0,1.3,0,2.5,0,3.5c0,0.8,0,1.6,0.1,2.4c0,0.3,0.1,0.7,0.3,1c0.2,0.3,0.5,0.5,0.8,0.5h0.2h0.3
	h0.4h0.3c0.1,0,0.1,0,0.2,0c0,0,0,0.1,0,0.1c0,0.1,0,0.1-0.1,0.1c-0.1,0-0.2,0-0.3,0h-0.5h-0.9h-0.8h-0.8h-0.7h-0.7h-1.1H166
	c-0.1,0-0.2,0-0.3,0c-0.1,0-0.1-0.1-0.1-0.1c0,0,0-0.1,0.1-0.1c0.1,0,0.1,0,0.2,0h0.2h0.2h0.2h0.2c0.3,0,0.5-0.2,0.6-0.5
	c0.1-0.3,0.2-0.7,0.2-1c0.1-0.8,0.1-1.6,0.1-2.3c0-1,0-2.2,0-3.5V11.1h-4.1c-0.6,0-1.2,0.1-1.9,0.2c-0.4,0.1-0.7,0.3-0.9,0.7
	l-0.3,0.5c-0.1,0.1-0.1,0.2-0.1,0.3c0,0.1-0.1,0.2-0.1,0.2c-0.1,0-0.1,0-0.2,0c0,0-0.1,0-0.1-0.1c0-0.1,0-0.1,0-0.2
	c0-0.2,0-0.3,0.1-0.5c0-0.3,0.1-0.6,0.2-0.9l0,0c0,0,0,0,0-0.1c0.1-0.3,0.1-0.6,0.2-0.8c0-0.2,0.1-0.3,0.1-0.5c0,0,0-0.1,0-0.1
	c0,0,0-0.1,0-0.1c0-0.1,0-0.1,0.1-0.2c0-0.1,0-0.1,0.1-0.1c0.1,0,0.1,0,0.2,0l0.3,0.1l0.3,0.1l0.4,0.1h0.3h0.3h0.9
	c0.3,0,0.5,0,0.6,0h10.3c0.3,0,0.6,0,0.9,0h0.7h0.2h0.2l0.5-0.1h0.3c0.1,0,0.1,0,0.1,0.1c0,0.1,0,0.2,0,0.2c0,0.2,0,0.4,0,0.6
	c0,0.2,0,0.5,0,0.7v0.4c0,0.3,0,0.6,0,0.8c0,0.2,0,0.4,0,0.5c0,0.1,0,0.2,0,0.3c0,0-0.1,0.1-0.1,0.1c-0.1,0-0.1,0-0.1-0.1
	c0-0.1-0.1-0.2-0.1-0.4v-0.3c-0.1-0.4-0.3-0.8-0.7-1c-0.8-0.4-1.7-0.5-2.6-0.4L169.9,11.1L169.9,11.1z"/>
<path class="st2" d="M179.4,27.6l1.2-3l5.1-14c0.1-0.3,0.2-0.5,0.3-0.7c0-0.1,0.1-0.2,0.2-0.3l0,0h0.1l0,0c0.1,0,0.1,0.1,0.2,0.2
	c0.1,0.2,0.2,0.5,0.3,0.7c0.1,0.3,0.5,1.4,1.2,3.2s1.5,3.8,2.3,5.9l1.6,4.2l1.3,3.3c0.3,0.8,0.7,1.6,1.3,2.3c0.3,0.3,0.6,0.5,1,0.7
	c0.2,0.1,0.4,0.1,0.6,0.1h0.5c0.1,0,0.1,0,0.2,0c0,0,0.1,0.1,0.1,0.1c0,0.1-0.1,0.1-0.2,0.1c-0.1,0-0.3,0-0.4,0H195
	c-0.8,0-1.6,0-2.5,0h-0.6h-0.4c-0.1,0-0.2,0-0.2-0.1c0,0,0-0.1,0-0.1l0.1-0.1c0.1,0,0.1-0.1,0.1-0.1c0.1-0.1,0.1-0.2,0.1-0.3
	c0,0,0-0.1,0-0.1c0-0.1,0-0.1-0.1-0.2l-2.6-6.8c0,0,0-0.1-0.1-0.1c-0.1,0-0.1,0-0.2,0h-5.9c-0.1,0-0.1,0-0.2,0.1
	c0,0-0.1,0.1-0.1,0.2l-1.6,4.8c-0.1,0.3-0.2,0.7-0.3,1c-0.1,0.3-0.1,0.6-0.1,0.9c0,0.2,0.1,0.4,0.3,0.5c0.2,0.1,0.4,0.2,0.6,0.2h0.1
	h0.1h0.3l0.2,0.1c0,0,0.1,0.1,0.1,0.1c0,0.1,0,0.1-0.1,0.1c-0.1,0-0.2,0-0.3,0h-0.4h-0.8H180h-0.8h-0.7h-0.6h-0.7h-0.6
	c-0.1,0-0.3,0-0.4,0c-0.1,0-0.1-0.1-0.1-0.1c0-0.1,0-0.1,0.1-0.1c0.1,0,0.1,0,0.2,0h0.2h0.2h0.4c0.6-0.1,1.1-0.4,1.4-0.9
	c0.4-0.5,0.6-1.1,0.9-1.7l0,0L179.4,27.6z M183.3,21.5h5.2c0.1,0,0.1,0,0.1,0c0,0,0-0.1,0-0.1l-2.6-7.5c-0.1-0.2-0.1-0.3-0.2-0.3
	c-0.1,0-0.1,0.1-0.2,0.3l-2.4,7.4l0,0l0,0l0,0l0,0c0,0,0,0.1,0,0.1h0.1L183.3,21.5z"/>
<path class="st2" d="M200.9,22.7v-8.9c0-0.7,0-1.3,0-1.7v-0.1c0-0.4-0.1-0.7-0.3-1.1c-0.2-0.3-0.6-0.4-0.9-0.5c-0.1,0-0.2,0-0.2,0
	h-0.3c-0.1,0-0.2,0-0.2,0h-0.3c0,0-0.1,0-0.1,0c0,0-0.1-0.1-0.1-0.1c0-0.1,0-0.1,0.1-0.2c0.1,0,0.2,0,0.3,0h0.9h0.5h0.5h0.7h0.9h0.9
	h1.2h0.7h0.6h0.6c0.7,0,1.3,0.2,2,0.3c0.7,0.2,1.3,0.5,1.8,0.9c0.1,0.1,0.2,0.2,0.3,0.3c0.1,0.1,0.2,0.2,0.4,0.4
	c0.3,0.4,0.6,0.8,0.8,1.3c0.3,0.6,0.4,1.2,0.4,1.8v0.3c0,0.1,0,0.2,0,0.3c-0.1,1-0.4,1.9-0.9,2.8c-0.6,1.1-1.5,2.1-2.4,2.9l3.1,3.9
	c0.9,1.2,1.8,2.2,2.6,3.1c0.5,0.6,1.2,1.2,2,1.5c0.4,0.2,0.9,0.3,1.4,0.4l0.7,0.1h0.4c0.1,0,0.1,0,0.2,0c0,0,0.1,0.1,0.1,0.1
	c0,0.1-0.1,0.1-0.1,0.1c-0.2,0-0.3,0-0.5,0h-1.9c-0.6,0-1.2,0-1.7-0.1c-0.4-0.1-0.8-0.2-1.2-0.4l0,0l-0.5-0.3l-0.4-0.4
	c-0.5-0.4-0.9-0.9-1.3-1.4c-0.4-0.6-0.9-1.2-1.5-2l-0.2-0.3c-0.1-0.1-0.2-0.2-0.2-0.3l-0.2-0.2c-0.1-0.1-0.1-0.2-0.2-0.2
	c-0.5-0.6-0.9-1.2-1.3-1.7c-0.4-0.6-0.7-1-0.9-1.2l0,0l0,0h-0.1c0,0-0.1,0-0.1,0l-3.4-0.3c-0.1,0-0.1,0-0.1,0.1c0,0.1,0,0.1,0,0.2
	v0.6c0,1.3,0,2.5,0,3.5c0,0.8,0,1.6,0.1,2.4c0,0.3,0.1,0.7,0.3,1c0.2,0.3,0.5,0.5,0.8,0.5h0.2h0.3h0.4h0.3c0.1,0,0.1,0,0.2,0
	c0,0,0,0.1,0,0.1c0,0.1,0,0.1-0.1,0.1c-0.1,0-0.2,0-0.3,0h-0.5h-0.9h-0.8h-0.8h-0.7H201h-0.5h-0.6h-0.5c-0.1,0-0.2,0-0.3,0
	c-0.1,0-0.1-0.1-0.1-0.1c0,0,0-0.1,0.1-0.1c0.1,0,0.1,0,0.2,0h0.2h0.2h0.2h0.2c0.3,0,0.5-0.2,0.6-0.5c0.1-0.3,0.2-0.7,0.2-1
	c0.1-0.8,0.1-1.6,0.1-2.4C200.9,25.2,200.9,24,200.9,22.7L200.9,22.7L200.9,22.7z M203.1,11.3v9c0,0.1,0,0.1,0,0.2
	c0,0.1,0.1,0.1,0.1,0.1c0.3,0.1,0.7,0.2,1,0.3c0.5,0.1,1.1,0.1,1.6,0.1h0.7L207,21c0.2,0,0.4-0.1,0.6-0.1c0.2-0.1,0.4-0.2,0.6-0.3
	c0.5-0.4,0.9-1,1.2-1.6c0.4-0.8,0.5-1.8,0.5-2.7c0.1-1.5-0.4-2.9-1.3-4c-0.9-1-2.1-1.5-3.5-1.5c-0.4,0-0.8,0-1.2,0.1
	c-0.2,0-0.5,0.1-0.7,0.1c-0.1,0-0.1,0.1-0.2,0.1c0,0.1-0.1,0.1-0.1,0.2l0,0L203.1,11.3z"/>
<path class="st2" d="M219.4,27.6l1.2-3l5.1-14c0.1-0.3,0.2-0.6,0.3-0.7c0.1-0.1,0.1-0.2,0.2-0.3l0,0h0.1l0,0c0,0,0.1,0.1,0.2,0.2
	c0.1,0.2,0.2,0.5,0.3,0.7c0.1,0.3,0.5,1.4,1.2,3.2c0.7,1.8,1.5,3.8,2.2,5.9l1.6,4.2c0.5,1.3,0.9,2.4,1.3,3.3
	c0.3,0.8,0.7,1.6,1.3,2.3c0.3,0.3,0.6,0.5,1,0.7c0.2,0.1,0.4,0.1,0.6,0.1h0.5c0.1,0,0.1,0,0.2,0c0,0,0.1,0.1,0.1,0.1
	c0,0.1-0.1,0.1-0.2,0.1c-0.1,0-0.3,0-0.4,0h-1.5c-0.8,0-1.6,0-2.5,0h-0.6h-0.4c-0.1,0-0.2,0-0.2-0.1c0,0,0-0.1,0-0.1l0.1-0.1
	c0.1,0,0.1-0.1,0.1-0.1c0.1-0.1,0.1-0.2,0.1-0.3c0,0,0-0.1,0-0.1c0-0.1,0-0.1-0.1-0.2l-2.6-6.8c0,0,0-0.1-0.1-0.1
	c-0.1,0-0.1,0-0.2,0h-5.9c-0.1,0-0.1,0-0.2,0.1c0,0-0.1,0.1-0.1,0.2l-1.6,4.8c-0.1,0.3-0.2,0.7-0.3,1c-0.1,0.3-0.1,0.6-0.1,0.9
	c0,0.2,0.1,0.4,0.3,0.5c0.2,0.1,0.4,0.2,0.6,0.2h0.1h0.1h0.3l0.2,0.1c0,0,0.1,0.1,0.1,0.1c0,0.1,0,0.1-0.1,0.1c-0.1,0-0.2,0-0.3,0
	h-0.4h-0.7H220h-0.8h-0.8h-0.6h-0.7h-0.6c-0.1,0-0.3,0-0.4,0c-0.1,0-0.1-0.1-0.1-0.1c0,0,0-0.1,0-0.1c0.1,0,0.1,0,0.2,0h0.2
	c0.1,0,0.2,0,0.2,0h0.3c0.6-0.1,1.1-0.4,1.5-0.9C218.9,28.9,219.2,28.3,219.4,27.6L219.4,27.6L219.4,27.6z M223.3,21.5h5.2
	c0.1,0,0.1,0,0.1,0c0,0,0-0.1,0-0.1L226,14c-0.1-0.2-0.1-0.3-0.2-0.3c-0.1,0-0.1,0.1-0.2,0.3l-2.4,7.4l0,0l0,0l0,0l0,0
	C223.2,21.4,223.2,21.4,223.3,21.5C223.2,21.5,223.2,21.5,223.3,21.5L223.3,21.5z"/>
<path class="st2" d="M241.2,13.7l0.4,13.1c0,0.8,0.1,1.6,0.3,2.3c0.1,0.4,0.4,0.7,0.8,0.8h0.1h0.1c0.2,0.1,0.4,0.1,0.6,0.1h0.4
	c0.1,0,0.1,0,0.2,0c0,0,0.1,0.1,0.1,0.1c0,0.1,0,0.1-0.1,0.1c-0.1,0-0.3,0-0.4,0h-1.1h-0.9h-0.6h-0.7h-0.6h-0.8h-0.9
	c-0.1,0-0.2,0-0.3,0c-0.1,0-0.1-0.1-0.1-0.1c0,0,0-0.1,0.1-0.1c0.1,0,0.1,0,0.2,0h0.4l0.5-0.1h0.1h0.2c0.4-0.1,0.6-0.5,0.7-0.9
	c0.1-0.9,0.2-1.7,0.1-2.6v-1.7v-14c0-0.4,0-0.7,0.1-1c0-0.2,0.1-0.3,0.2-0.3c0.1,0,0.2,0.1,0.2,0.1c0.1,0.1,0.2,0.2,0.3,0.3h0.1l0,0
	c0.1,0.1,0.1,0.1,0.2,0.2l0.2,0.2c0.2,0.2,1.2,1.3,2.9,3.2s3.7,4,5.8,6.2l0.5,0.5l0.4,0.5l0.2,0.2l0.2,0.2c1.2,1.3,2.2,2.4,3.2,3.6
	s1.7,1.9,2.1,2.2l-0.3-13.9c0-0.6-0.1-1.3-0.2-1.9c-0.1-0.4-0.5-0.6-0.8-0.7h-0.2h-0.2c-0.2,0-0.4-0.1-0.6-0.1h-0.4
	c-0.1,0-0.1,0-0.2,0c0,0,0-0.1,0-0.1c0-0.1,0.1-0.2,0.1-0.2c0,0,0,0,0,0c0.1,0,0.3,0,0.4,0h0.3h0.8h0.7h0.7h0.7h0.5h0.7h0.8
	c0.1,0,0.2,0,0.4,0c0.1,0,0.1,0,0.1,0.1c0,0.1,0,0.1-0.1,0.1c-0.1,0-0.1,0-0.2,0h-0.3c-0.1,0-0.3,0-0.4,0.1c-0.4,0-0.7,0.3-0.8,0.7
	c-0.1,0.6-0.2,1.2-0.2,1.8v2v14c0,0.6,0,1.1-0.1,1.6c0,0.2-0.1,0.3-0.2,0.3c-0.2-0.1-0.4-0.2-0.5-0.3c-0.2-0.2-0.7-0.7-1.5-1.4
	l-1.7-1.8c-1-1.1-2.2-2.3-3.5-3.5l-0.1-0.1l-0.1-0.1c-0.3-0.3-0.6-0.6-0.9-1l-0.9-0.9l-0.1-0.1c0,0-0.1-0.1-0.1-0.1
	c-1.5-1.7-3-3.3-4.3-4.7L241.2,13.7L241.2,13.7L241.2,13.7z"/>
<path class="st2" d="M276,31c-1.8,0-3.6-0.2-5.3-0.7c-1.4-0.5-2.7-1.2-3.8-2.2c-0.7-0.7-1.4-1.4-1.9-2.3c-0.4-0.8-0.8-1.6-1-2.4
	c-0.2-0.6-0.3-1.1-0.3-1.7c0-0.6-0.1-1.2-0.1-1.7c0-0.7,0.1-1.4,0.2-2.1c0.2-0.9,0.5-1.7,0.8-2.5c0.2-0.5,0.5-1,0.8-1.5
	c0.3-0.5,0.7-1,1.2-1.4c0.9-0.9,2-1.6,3.2-2.1c1.6-0.6,3.4-0.9,5.1-0.9h1.3c0.5,0,0.9,0.1,1.4,0.1l0.7,0.1l0.7,0.1l1.5,0.3
	c0.4,0.1,0.9,0.1,1.3,0.2c0.1,0,0.2,0,0.3,0.1c0.1,0.1,0.1,0.1,0.1,0.2c0,0.1,0,0.2,0,0.3c0,0.1,0,0.3,0,0.6c0,0.1,0,0.2,0,0.3
	c0,0.1,0,0.2,0,0.3c0,0.2,0,0.4,0,0.5c0,0.2,0,0.4,0,0.6v1c0,0.2,0,0.3,0,0.4c0,0.1,0,0.2,0,0.3c0,0.1,0,0.3-0.1,0.4
	c0,0.1-0.1,0.1-0.2,0.1c-0.1,0-0.2-0.1-0.2-0.1c0-0.1,0-0.3,0-0.4v-0.3c0-0.5-0.2-1-0.4-1.4c-0.2-0.4-0.5-0.8-0.8-1.1
	c-0.6-0.5-1.4-0.9-2.2-1.1c-1.1-0.3-2.2-0.5-3.3-0.5c-1.3,0-2.6,0.1-3.8,0.5c-0.8,0.3-1.5,0.7-2.1,1.2l-0.2,0.2
	c0,0.1-0.1,0.1-0.2,0.2c-1.1,0.9-1.8,2-2.2,3.3c-0.3,1.3-0.5,2.6-0.5,3.9c0,2.6,1,5,2.8,6.9c1.8,2,4.4,3.1,7.2,3
	c0.9,0,1.8-0.1,2.7-0.3c0.8-0.2,1.5-0.6,2-1.2c0.1-0.2,0.2-0.3,0.3-0.5c0.1-0.2,0.2-0.4,0.3-0.6c0.1-0.3,0.2-0.5,0.2-0.7
	c0.1-0.2,0.1-0.3,0.1-0.5c0-0.1,0.1-0.2,0.1-0.3c0-0.1,0.1-0.1,0.2-0.1c0.1,0,0.1,0,0.1,0.1c0,0.1,0,0.2,0,0.3c0,0.1,0,0.3-0.1,0.7
	c-0.1,0.4-0.1,0.8-0.2,1.3c0,0.2-0.1,0.4-0.1,0.6c0,0.2-0.1,0.4-0.1,0.5s0,0.2-0.1,0.2c-0.1,0.1,0,0.1,0,0.2c0,0,0,0.1,0,0.1
	c0,0,0,0.1,0,0.1c0,0.1-0.1,0.1-0.1,0.2c-0.1,0.1-0.1,0.1-0.2,0.2h-0.1l-0.2,0.1c-0.5,0.2-1,0.3-1.6,0.4c-0.6,0.1-1.3,0.2-2,0.2
	h-0.7L276,31z"/>
<path class="st2" d="M305.4,17.9v4.8c0,1.3,0,2.5,0,3.5c0,0.8,0,1.6,0.1,2.4c0,0.3,0.1,0.7,0.3,1c0.2,0.3,0.5,0.5,0.8,0.5h0.2h0.2
	h0.4h0.3c0.1,0,0.1,0,0.2,0c0,0,0,0.1,0,0.1c0,0.1,0,0.1-0.1,0.1c-0.1,0-0.2,0-0.3,0H307h-0.9h-0.8h-0.8h-0.7h-0.7h-1.1h-0.5
	c-0.1,0-0.2,0-0.3,0c-0.1,0-0.1-0.1-0.1-0.1c0,0,0-0.1,0-0.1c0.1,0,0.1,0,0.2,0h0.2h0.2h0.2h0.2c0.3,0,0.5-0.2,0.6-0.5
	c0.1-0.3,0.2-0.7,0.2-1c0.1-0.8,0.1-1.6,0.1-2.4c0-1,0-2.2,0-3.5v-3c0,0,0-0.1,0-0.1c0,0-0.1,0-0.1,0h-11.6h-0.1
	c0,0-0.1,0.1-0.1,0.1v2.8c0,1.3,0,2.5,0,3.5c0,0.8,0,1.6,0.1,2.4c0,0.3,0.1,0.7,0.3,1c0.2,0.3,0.5,0.5,0.8,0.5h0.2h0.3h0.4h0.3
	c0.1,0,0.1,0,0.2,0c0,0,0,0.1,0,0.1c0,0.1,0,0.1-0.1,0.1c-0.1,0-0.2,0-0.3,0h-0.5h-0.9h-0.8h-0.8h-0.7h-0.7h-1.1h-0.5
	c-0.1,0-0.2,0-0.3,0c-0.1,0-0.1-0.1-0.1-0.1c0,0,0-0.1,0.1-0.1c0.1,0,0.1,0,0.2,0h0.2h0.2c0.1,0,0.1,0,0.2,0c0.1,0,0.1,0,0.2,0
	c0.3,0,0.5-0.2,0.6-0.5c0.1-0.3,0.2-0.7,0.2-1c0.1-0.8,0.1-1.6,0.1-2.4c0-1,0-2.2,0-3.5v-9c0-0.7,0-1.3-0.1-1.7v-0.1
	c0-0.4-0.1-0.7-0.3-1.1c-0.2-0.3-0.6-0.4-0.9-0.5c-0.1,0-0.1,0-0.2,0H287c-0.1,0-0.2,0-0.2,0h-0.2c0,0-0.1,0-0.1,0
	c0,0-0.1-0.1-0.1-0.1c0-0.1,0-0.1,0.1-0.2c0.1,0,0.2,0,0.3,0h0.9c0.2,0,0.4,0,0.5,0h0.5h0.8h0.7h0.7h1.1h0.5c0.1,0,0.2,0,0.3,0
	c0.1,0,0.1,0.1,0.1,0.2c0,0.1,0,0.1-0.1,0.1c0,0-0.1,0-0.1,0h-0.1h-0.2l-0.4,0.1c-0.3,0-0.6,0.2-0.7,0.5c-0.2,0.3-0.3,0.7-0.3,1.1
	v0.1c0,0.4-0.1,1-0.1,1.7v4.7c0,0.1,0,0.1,0.1,0.2h0.1h11.6h0.1c0,0,0-0.1,0-0.1v-4.8c0-0.7,0-1.3,0-1.7v-0.1c0-0.4-0.1-0.7-0.3-1.1
	c-0.2-0.3-0.6-0.5-0.9-0.5c-0.1,0-0.1,0-0.2,0h-0.3c-0.1,0-0.2,0-0.2,0h-0.2c0,0-0.1,0-0.1,0c0,0-0.1-0.1-0.1-0.1
	c0-0.1,0-0.1,0.1-0.2c0.1,0,0.2,0,0.3,0h0.9c0.2,0,0.4,0,0.5,0h0.5h0.7h0.7h0.7h1.1h0.5c0.1,0,0.2,0,0.3,0c0.1,0,0.1,0.1,0.1,0.2
	c0,0.1,0,0.1-0.1,0.1c0,0-0.1,0-0.1,0h0h-0.2l-0.4,0.1c-0.3,0-0.6,0.2-0.7,0.5c-0.2,0.3-0.2,0.7-0.3,1.1v0.1c0,0.4,0,1,0,1.7
	L305.4,17.9L305.4,17.9z"/>
<path class="st2" d="M312.8,27.6l1.2-3l5.1-14c0.1-0.3,0.2-0.6,0.3-0.7c0.1-0.1,0.1-0.2,0.2-0.3l0,0h0.1l0,0c0.1,0,0.1,0.1,0.2,0.2
	c0.1,0.2,0.2,0.5,0.3,0.7c0.1,0.3,0.5,1.4,1.2,3.2c0.7,1.8,1.5,3.8,2.2,5.9l1.6,4.2c0.5,1.3,0.9,2.4,1.3,3.3
	c0.3,0.8,0.7,1.6,1.3,2.3c0.3,0.3,0.6,0.5,1,0.7c0.2,0.1,0.4,0.1,0.6,0.1h0.5c0.1,0,0.1,0,0.2,0c0,0,0.1,0.1,0.1,0.1
	c0,0.1,0,0.1-0.2,0.1c-0.1,0-0.3,0-0.4,0h-1.5c-0.8,0-1.6,0-2.5,0h-0.6h-0.4c-0.1,0-0.2,0-0.2-0.1c0,0,0-0.1,0.1-0.1l0.1-0.1
	c0.1,0,0.1-0.1,0.1-0.1c0.1-0.1,0.1-0.2,0.1-0.3c0,0,0-0.1,0-0.1c0-0.1,0-0.1-0.1-0.2l-2.6-6.8c0,0,0-0.1-0.1-0.1
	c-0.1,0-0.1,0-0.2,0h-5.9c-0.1,0-0.1,0-0.2,0.1c0,0.1-0.1,0.1-0.1,0.2l-1.6,4.8c-0.1,0.3-0.2,0.7-0.3,1c-0.1,0.3-0.1,0.6-0.1,0.9
	c0,0.2,0.1,0.4,0.3,0.5c0.2,0.1,0.4,0.2,0.6,0.2h0.1h0.2h0.3l0.2,0.1c0,0,0.1,0.1,0.1,0.1c0,0.1,0,0.1-0.1,0.1c-0.1,0-0.2,0-0.3,0
	h-0.4h-0.8h-0.6h-0.8h-0.7h-0.6h-0.7h-0.6c-0.1,0-0.3,0-0.4,0c-0.1,0-0.1-0.1-0.1-0.1c0-0.1,0-0.1,0.1-0.1c0.1,0,0.1,0,0.2,0h0.2
	c0.1,0,0.1,0,0.2,0h0.3c0.6-0.1,1.1-0.4,1.5-0.9C312.3,28.9,312.6,28.2,312.8,27.6L312.8,27.6L312.8,27.6z M316.6,21.5h5.2
	c0.1,0,0.1,0,0.1,0c0,0,0-0.1,0-0.1l-2.6-7.4c-0.1-0.2-0.1-0.3-0.2-0.3s-0.1,0.1-0.2,0.3l-2.4,7.4l0,0l0,0l0,0l0,0
	C316.6,21.4,316.6,21.4,316.6,21.5C316.6,21.5,316.6,21.5,316.6,21.5L316.6,21.5z"/>
<path class="st2" d="M336.6,17.9v4.9c0,2,0,3.5,0.1,4.5c0,0.6,0.1,1.3,0.5,1.8c0.3,0.3,0.6,0.4,1,0.5c0.8,0.1,1.5,0.2,2.3,0.1
	c0.7,0,1.3,0,2-0.1c0.5,0,1-0.3,1.4-0.7c0.1-0.1,0.2-0.3,0.3-0.4c0.1-0.2,0.2-0.3,0.2-0.5c0-0.1,0.1-0.2,0.1-0.3
	c0-0.1,0.1-0.2,0.1-0.3c0-0.1,0-0.2,0.1-0.3c0-0.1,0.1-0.1,0.2-0.1c0.1,0,0.1,0,0.1,0.1c0,0,0,0,0,0c0,0.1,0,0.2,0,0.3
	c0,0.1,0,0.3-0.1,0.6s-0.1,0.6-0.1,1c0,0.3-0.1,0.4-0.1,0.6c0,0.2-0.1,0.4-0.1,0.5c0,0,0,0,0,0.1c0,0,0,0,0,0.1
	c-0.1,0.2-0.2,0.4-0.4,0.5c-0.4,0.1-0.9,0.1-1.3,0.1c-1,0-1.8,0-2.6,0h-2h-1.5c-0.4,0-0.9,0-1.3,0h-0.1c-0.1,0-0.2,0-0.2,0h-0.9H334
	h-0.6h-0.6c-0.1,0-0.2,0-0.3,0c-0.1,0-0.1-0.1-0.1-0.1c0,0,0-0.1,0.1-0.1c0.1,0,0.1,0,0.2,0h0.2h0.2h0.2h0.2c0.3,0,0.5-0.2,0.6-0.5
	c0.1-0.3,0.2-0.7,0.2-1c0.1-0.8,0.1-1.6,0.1-2.4c0-1,0-2.2,0-3.5v-9.4c0-0.7,0-1.3-0.1-1.7v-0.1c0-0.4-0.1-0.7-0.3-1.1
	c-0.2-0.3-0.6-0.4-0.9-0.5h-0.2h-0.3c-0.1,0-0.2,0-0.2,0h-0.2c0,0-0.1,0-0.1,0c0,0-0.1-0.1-0.1-0.1c0-0.1,0-0.2,0.1-0.2
	c0.1,0,0.2,0,0.3,0h0.9h0.5h0.5h0.7h0.8h0.8h1.2h0.6c0.1,0,0.2,0,0.3,0c0.1,0,0.1,0.1,0.1,0.2c0,0.1,0,0.1-0.1,0.1c0,0-0.1,0-0.1,0
	h-0.3H338h-0.1h-0.1c-0.3,0-0.6,0.2-0.8,0.5c-0.2,0.3-0.2,0.7-0.3,1.1V12c0,0.4-0.1,1-0.1,1.7L336.6,17.9L336.6,17.9z"/>
<path class="st2" d="M121,54.6V44.5c0-0.9,0-1.6,0-2.1v-0.1c0-0.5-0.1-0.9-0.3-1.3c-0.3-0.3-0.7-0.6-1.1-0.6h-0.3H119h-0.3h-0.3
	c-0.1,0-0.1,0-0.2,0c-0.1,0-0.1-0.1-0.1-0.1c0-0.1,0.1-0.2,0.1-0.2c0.1,0,0.3,0,0.4,0h1.2h0.6h0.6h1h1h0.9h1.9c0.1,0,0.3,0,0.4,0
	c0.1,0,0.1,0.1,0.1,0.2c0,0.1,0,0.1-0.1,0.1c-0.1,0-0.1,0-0.2,0h-0.1h-0.3h-0.4c-0.4,0-0.7,0.2-0.9,0.6c-0.2,0.4-0.3,0.9-0.3,1.4
	v0.1c0,0.5-0.1,1.2-0.1,2.1v9.8c-0.1,1.9,0.2,3.7,0.7,5.5c0.4,1.1,1,2,1.8,2.8c0.2,0.2,0.4,0.4,0.6,0.5c0.2,0.2,0.4,0.3,0.6,0.4
	c0.6,0.4,1.2,0.6,1.9,0.7c0.7,0.1,1.3,0.2,2,0.2c2,0,4-0.9,5.3-2.4c0.8-1,1.4-2.3,1.6-3.6c0.3-1.6,0.4-3.1,0.4-4.7v-9.4
	c0-0.9,0-1.6-0.1-2.1v-0.1c0-0.5-0.1-0.9-0.3-1.3c-0.3-0.3-0.7-0.6-1.1-0.6h-0.3h-0.3h-0.3h-0.3c-0.1,0-0.1,0-0.2,0
	c-0.1,0-0.1-0.1-0.1-0.1c0-0.1,0-0.2,0.1-0.2c0.1,0,0.3,0,0.4,0h2.3h0.9h0.8h0.7h0.7c0.2,0,0.4,0,0.5,0h0.5c0.1,0,0.3,0,0.4,0
	c0.1,0,0.1,0.1,0.1,0.2c0,0.1,0,0.1-0.1,0.1c-0.1,0-0.1,0-0.2,0h-0.4l-0.4,0.1c-0.4,0-0.7,0.3-0.9,0.6c-0.2,0.4-0.3,0.9-0.3,1.3v0.1
	c0,0.5,0,1.2,0,2.1v8.7c0,0.4,0,0.8,0,1.1v1.1c-0.1,1.5-0.4,2.9-0.8,4.3c-0.4,1.4-1.2,2.6-2.3,3.6c-0.2,0.2-0.5,0.4-0.7,0.6
	s-0.5,0.3-0.7,0.5c-0.9,0.5-1.9,0.9-3,1.1c-0.9,0.2-1.8,0.3-2.6,0.3c-0.4,0-1,0-1.9-0.1c-0.9-0.1-1.8-0.3-2.6-0.7
	c-0.4-0.2-0.9-0.4-1.3-0.6c-0.4-0.3-0.8-0.6-1.2-0.9c-0.9-0.9-1.6-2-2.1-3.2c-0.6-1.8-0.9-3.8-0.8-5.7l0,0L121,54.6z"/>
<path class="st2" d="M151.6,44.6l0.4,16.2c0,1,0.1,1.9,0.4,2.8c0.1,0.5,0.5,0.9,1,1h0.2h0.2c0.3,0.1,0.5,0.1,0.8,0.1h0.5
	c0.1,0,0.1,0,0.2,0c0,0,0.1,0.1,0.1,0.1c0,0.1-0.1,0.2-0.2,0.2c-0.2,0-0.3,0-0.5,0h-1.3h-1.1h-0.8h-0.8H150h-1h-1.1
	c-0.1,0-0.3,0-0.4,0c-0.1,0-0.2-0.1-0.2-0.2c0-0.1,0-0.1,0.1-0.1c0.1,0,0.1,0,0.2,0h0.4l0.6-0.1h0.2h0.2c0.4-0.1,0.7-0.5,0.8-1.1
	c0.2-1.1,0.2-2.1,0.2-3.2v-2.1V41c0-0.4,0-0.9,0.1-1.3c0-0.2,0.2-0.4,0.3-0.4c0.1,0,0.2,0.1,0.3,0.2c0.1,0.1,0.2,0.2,0.3,0.4
	c0,0,0,0,0,0.1l0,0c0.1,0.1,0.2,0.2,0.2,0.3l0.2,0.2c0.2,0.3,1.4,1.6,3.6,3.9s4.6,4.9,7.1,7.7c0.2,0.2,0.4,0.4,0.6,0.6l0.6,0.6
	l0.2,0.2l0.2,0.2l4,4.4c1.2,1.4,2.1,2.3,2.6,2.8l-0.4-17.2c0-0.8-0.1-1.6-0.3-2.3c-0.2-0.4-0.6-0.8-1-0.9h-0.2h-0.2l-0.7-0.1H167
	c-0.1,0-0.2,0-0.2,0c0-0.1,0-0.1,0-0.2c0-0.1,0-0.2,0.2-0.2c0.2,0,0.3,0,0.5,0h2.2h0.8h0.9h0.6h1.8c0.1,0,0.3,0,0.4,0
	c0.1,0,0.2,0.1,0.2,0.2c0,0,0,0,0,0c0,0.1,0,0.1-0.1,0.2c-0.1,0-0.2,0-0.3,0h-0.3l-0.5,0.1c-0.5,0-0.9,0.4-1.1,0.8
	c-0.2,0.7-0.2,1.4-0.2,2.2l0.1,2.4v17.3c0,0.7,0,1.4,0,2c0,0.2-0.1,0.4-0.2,0.4c-0.1,0-0.4-0.1-0.7-0.4c-0.3-0.3-0.9-0.8-1.8-1.7
	l-2.1-2.2c-1.3-1.3-2.7-2.8-4.3-4.4l-0.1-0.1c-0.1,0-0.1-0.1-0.1-0.1c-0.4-0.4-0.7-0.8-1.1-1.2c-0.4-0.4-0.7-0.8-1.1-1.1l-0.1-0.1
	l-0.1-0.1c-1.9-2.1-3.7-4-5.3-5.8l-3.2-3.6l0,0L151.6,44.6z"/>
<path class="st2" d="M186,49.6v5.9c0,1.7,0,3.1,0,4.4c0,1,0.1,2,0.2,3c0,0.4,0.1,0.9,0.3,1.3c0.2,0.4,0.6,0.6,1,0.6h0.3h0.3h0.5h0.4
	c0.1,0,0.2,0,0.2,0.1c0,0,0,0.1,0,0.1c0,0.1,0,0.2-0.1,0.2c-0.1,0-0.3,0-0.4,0h-1.7h-1h-1H184h-0.9h-0.6h-0.7h-0.6
	c-0.1,0-0.3,0-0.4,0c-0.1,0-0.1-0.1-0.1-0.2c0,0,0-0.1,0-0.1c0.1-0.1,0.1-0.1,0.2-0.1h0.5h0.3h0.2c0.3-0.1,0.6-0.3,0.7-0.6
	c0.1-0.4,0.2-0.8,0.3-1.3c0.1-1,0.2-2,0.2-3c0-1.3,0-2.7,0-4.3V44.5c0-0.9,0-1.6,0-2.1v-0.1c0-0.5-0.1-0.9-0.3-1.3
	c-0.2-0.3-0.5-0.5-0.9-0.6h-0.1h-0.1h-0.4h-0.3c-0.1,0-0.1,0-0.2,0c-0.1,0-0.1-0.1-0.1-0.1c0-0.1,0-0.2,0.1-0.2c0.1,0,0.3,0,0.4,0
	h0.6c0.2,0,0.5,0,0.7,0h0.7h0.9h0.9h0.9h2c0.1,0,0.3,0,0.4,0c0.1,0,0.2,0.1,0.1,0.2c0,0.1,0,0.1-0.1,0.1c-0.1,0-0.1,0-0.2,0H188
	h-0.3h-0.4c-0.4,0-0.7,0.3-0.9,0.6c-0.2,0.4-0.3,0.9-0.3,1.3v0.1c0,0.5-0.1,1.2-0.1,2.1L186,49.6L186,49.6z"/>
<path class="st2" d="M198.9,43.9L198.9,43.9l6.5,17.3c0.4-0.9,0.9-2.1,1.4-3.5c0.5-1.4,1.2-2.8,1.8-4.5l0.1-0.4l0.1-0.4
	c0.9-2.2,1.7-4.3,2.4-6.2c0.7-1.9,1.2-3.2,1.4-3.9c0.1-0.2,0.2-0.5,0.2-0.7c0.1-0.2,0.1-0.4,0.1-0.6v-0.1c0,0,0-0.1,0-0.1
	c0-0.1-0.1-0.2-0.1-0.3c-0.1-0.1-0.2-0.2-0.3-0.2h-0.3c-0.1,0-0.2,0-0.3,0h-0.4h-0.4c-0.1,0-0.2,0-0.3,0c-0.1,0-0.1-0.1-0.1-0.2
	c0-0.1,0.1-0.2,0.2-0.2c0.2,0,0.4,0,0.6,0h2h0.8h0.8h0.7h0.7c0.2,0,0.3,0,0.5,0h0.4c0.1,0,0.3,0,0.4,0c0.1,0,0.1,0.1,0.1,0.2
	c0,0.1,0,0.2-0.1,0.2c-0.1,0-0.2,0-0.3,0h-0.5c-0.3,0-0.5,0.1-0.8,0.2h-0.2c-0.1,0-0.1,0.1-0.2,0.1c-0.3,0.2-0.6,0.5-0.8,0.9
	c-0.4,0.7-0.8,1.5-1.1,2.3c-0.2,0.5-0.6,1.6-1.4,3.4l-2.3,5.7l-2.7,6.4c-0.8,1.8-1.3,3.1-1.7,3.9c-0.4,0.8-0.7,1.4-0.8,1.8
	c-0.1,0.3-0.2,0.5-0.4,0.7h-0.1h-0.1c-0.1,0-0.1,0-0.2,0l-0.1-0.1c-0.2-0.2-0.3-0.4-0.4-0.6c-0.1-0.3-0.3-0.7-0.5-1.3l-1.4-3.5
	l-6.8-17.2l-0.3-0.6l-0.3-0.5c-0.2-0.4-0.5-0.7-0.8-0.9c-0.3-0.2-0.7-0.4-1.1-0.5h-0.1h-0.1h-0.6h-0.4c-0.1,0-0.2,0-0.2,0
	c0-0.1,0-0.1,0-0.2c0-0.1,0.1-0.2,0.2-0.2c0.2,0,0.4,0,0.6,0h2.4h1h1h0.8h1.9c0.2,0,0.5,0,0.7,0c0.2,0,0.2,0.1,0.2,0.2
	c0,0.1,0,0.2-0.1,0.2c-0.1,0-0.2,0-0.3,0h-0.3h-0.3c-0.1,0-0.3,0-0.4,0c-0.1,0-0.2,0-0.3,0.1c-0.1,0-0.2,0.1-0.3,0.2
	c-0.1,0.1-0.1,0.2-0.1,0.3v0.2c0,0.4,0.1,0.7,0.3,1.1l0.6,1.7l0,0L198.9,43.9z"/>
<path class="st2" d="M223.1,55.6V44.5c0-0.9,0-1.6-0.1-2.1v-0.1c0-0.5-0.1-0.9-0.3-1.3c-0.3-0.3-0.7-0.6-1.1-0.6h-0.3H221h-0.3h-0.2
	c-0.1,0-0.1,0-0.2,0c-0.1,0-0.1-0.1-0.1-0.1c0-0.1,0.1-0.2,0.1-0.2c0.1,0,0.3,0,0.4,0h1.2h0.7h0.6h0.9h6.8h1.4l0.9-0.1l0.6-0.1
	c0,0,0.1,0,0.1,0h0.1h0.2h0.1c0,0,0.1,0,0.1,0.1c0,0.1,0,0.1,0,0.2c0,0.1,0,0.2,0,0.3c0,0.1-0.1,0.3-0.1,0.6c0,0.1,0,0.2,0,0.3
	c0,0.1,0,0.2,0,0.4s0,0.2,0,0.5c0,0.2,0,0.4-0.1,0.7c-0.1,0.2,0,0.1,0,0.2c0,0.1,0,0.1,0,0.2c0,0.1,0,0.3,0,0.4c0,0.1,0,0.2,0,0.3
	l0,0l0,0l-0.1,0.2c0,0.1-0.1,0.1-0.2,0.1c-0.1,0-0.2,0-0.2-0.1c-0.1-0.1-0.1-0.2-0.1-0.3c0-0.1,0-0.2,0-0.3c0-0.1,0-0.3,0-0.4
	s0-0.1,0-0.2c0-0.1,0-0.1,0-0.2c-0.1-0.3-0.3-0.5-0.6-0.7c-0.6-0.3-1.2-0.4-1.8-0.4h-0.9h-1.4h-1.5h-1.3c-0.1,0-0.1,0-0.1,0.1
	c0,0.1,0,0.2,0,0.3v9.3c0,0.1,0,0.2,0,0.3c0,0,0.1,0.1,0.2,0.1h4.3h1c0.4,0,0.7-0.1,1-0.2c0.2-0.1,0.4-0.2,0.6-0.3l0.3-0.3
	c0.1-0.1,0.1-0.1,0.2-0.1c0,0,0.1,0,0.1,0c0,0,0,0.1,0,0.2c0,0.1,0,0.2,0,0.4c0,0.2,0,0.4-0.1,0.7c0,0.1,0,0.2,0,0.4v0.4
	c0,0.1,0,0.3,0,0.4c0,0.2,0,0.3,0,0.5s0,0.6,0,0.8s0,0.4,0,0.5V55c0,0.1,0,0.2,0,0.3c0,0.1-0.1,0.1-0.2,0.1c-0.1,0-0.2,0-0.2-0.1
	c0-0.1,0-0.1,0-0.2c0-0.2,0-0.4,0-0.5c0-0.2-0.1-0.4-0.1-0.6V54c0,0,0-0.1,0-0.1c-0.1-0.2-0.3-0.4-0.5-0.6c-0.4-0.2-0.8-0.3-1.2-0.3
	h-1c-0.4,0-0.9,0-1.4,0h-1.6h-1.3c-0.1,0-0.2,0-0.2,0c0,0.1,0,0.1,0,0.2v8.7c-0.1,0.8,0.2,1.7,0.8,2.3c1,0.4,2.1,0.6,3.1,0.5h0.8
	c0.3,0,0.6,0,0.9,0c0.3,0,0.6-0.1,0.9-0.1c0.3,0,0.5-0.1,0.8-0.2c0.4-0.2,0.8-0.4,1-0.8c0.3-0.5,0.4-1,0.5-1.6
	c0-0.1,0.1-0.3,0.1-0.4c0-0.1,0.1-0.1,0.2-0.1c0.1,0,0.2,0.1,0.2,0.1c0,0.1,0,0.2,0,0.3l0,0l0,0c0,0,0,0.3,0,0.6s-0.1,0.7-0.1,1.1
	c0,0.1,0,0.2,0,0.3c0,0.1,0,0.2,0,0.4c0,0.2-0.1,0.3-0.1,0.5c0,0.2,0,0.3,0,0.4c-0.1,0.4-0.3,0.7-0.5,0.7c-0.4,0.1-0.9,0.1-1.4,0.1
	h-3.3h-2.4h-1.7h-1h-0.1h-0.3h-1.5h-0.7h-0.6c-0.1,0-0.3,0-0.4,0c-0.1,0-0.1-0.1-0.1-0.2c0,0,0-0.1,0-0.1c0.1,0,0.1-0.1,0.2-0.1h0.5
	h0.3h0.2c0.3-0.1,0.6-0.3,0.7-0.6c0.1-0.4,0.2-0.8,0.3-1.3c0.1-1,0.2-2,0.2-3c0-1.3,0-2.7,0-4.3l0,0L223.1,55.6z"/>
<path class="st2" d="M243.8,55.6V44.5c0-0.9,0-1.6-0.1-2.1v-0.1c0-0.5-0.1-0.9-0.3-1.3c-0.3-0.3-0.7-0.6-1.1-0.6H242h-0.3h-0.3h-0.3
	c-0.1,0-0.1,0-0.2,0c-0.1,0-0.1-0.1-0.1-0.1c0-0.1,0-0.2,0.1-0.2c0.1,0,0.3,0,0.4,0h1.2h0.7h0.6h0.9h1.1h1.1h3.7
	c0.8,0.1,1.6,0.2,2.5,0.4c0.8,0.2,1.6,0.6,2.3,1.1c0.2,0.1,0.3,0.2,0.4,0.3c0.2,0.1,0.3,0.3,0.5,0.5c0.4,0.5,0.7,1,1,1.6
	c0.3,0.7,0.5,1.4,0.5,2.2v0.4c0,0.1,0,0.2,0,0.4c-0.1,1.2-0.5,2.4-1.1,3.5c-0.8,1.4-1.8,2.6-3,3.6c1.4,1.8,2.7,3.4,3.9,4.9
	c1.2,1.4,2.2,2.7,3.2,3.8c0.7,0.8,1.5,1.4,2.4,1.9c0.5,0.2,1.1,0.4,1.7,0.5l0.8,0.1h0.4c0.1,0,0.2,0,0.2,0.1c0,0,0.1,0.1,0.1,0.1
	c0,0.1-0.1,0.2-0.2,0.2c-0.2,0-0.4,0-0.6,0h-2.4c-0.7,0-1.4,0-2.2-0.1c-0.5-0.1-1-0.2-1.4-0.4l0,0l0,0c-0.2-0.1-0.5-0.3-0.7-0.4
	c-0.2-0.1-0.4-0.3-0.5-0.4c-0.6-0.5-1.1-1.1-1.6-1.7l-1.9-2.4l-0.3-0.4c-0.1-0.1-0.2-0.3-0.3-0.4c-0.1-0.1-0.1-0.2-0.2-0.3l-0.2-0.3
	c-0.6-0.7-1.1-1.4-1.6-2.1c-0.5-0.7-0.9-1.2-1.1-1.5l0,0l0,0h-0.2h-0.2l-4.2-0.4c-0.1,0-0.1,0-0.2,0.1c0,0.1,0,0.1,0,0.2v0.8
	c0,1.7,0,3.1,0,4.4c0,1,0,2,0.1,3c0,0.4,0.1,0.9,0.3,1.3c0.2,0.4,0.6,0.6,1,0.6h0.3h0.3h0.5h0.4c0.1,0,0.2,0,0.2,0.1
	c0,0,0,0.1,0,0.1c0,0.1-0.1,0.2-0.1,0.2c-0.1,0-0.3,0-0.4,0h-1.7h-1h-1h-0.8h-0.9h-0.6h-0.7h-0.6c-0.1,0-0.3,0-0.4,0
	c-0.1,0-0.1-0.1-0.1-0.2c0,0,0-0.1,0-0.1c0.1-0.1,0.1-0.1,0.2-0.1h0.5h0.3h0.2c0.3-0.1,0.6-0.3,0.7-0.6c0.1-0.4,0.2-0.8,0.3-1.3
	c0.1-1,0.2-2,0.2-3C243.7,58.6,243.7,57.2,243.8,55.6L243.8,55.6L243.8,55.6z M246.5,41.5v11.1c0,0.1,0,0.2,0,0.3
	c0,0.1,0.1,0.1,0.2,0.2c0.4,0.2,0.9,0.3,1.3,0.4c0.7,0.1,1.3,0.2,2,0.2h0.8c0.2,0,0.4,0,0.6-0.1c0.2,0,0.5-0.1,0.7-0.2
	c0.2-0.1,0.5-0.2,0.7-0.4c0.7-0.5,1.2-1.2,1.5-1.9c0.4-1,0.6-2.2,0.6-3.3c0.1-1.8-0.4-3.6-1.6-5c-1.1-1.2-2.7-1.9-4.3-1.8
	c-0.5,0-1,0-1.4,0c-0.3,0-0.6,0.1-0.9,0.1c-0.1,0-0.2,0.1-0.2,0.1C246.4,41.3,246.4,41.4,246.5,41.5L246.5,41.5L246.5,41.5z"/>
<path class="st2" d="M271.7,65.9c-0.8,0-1.6-0.1-2.3-0.2c-0.8-0.1-1.5-0.4-2.2-0.7l0,0h-0.1c-0.2-0.1-0.3-0.2-0.3-0.4
	c0-0.3,0-0.6,0-0.8c0-0.5,0-0.9,0-1.4c0-0.5,0-0.8,0.1-1.1c0.1-0.3,0-0.5,0-0.7c0-0.2,0-0.3,0-0.5c0-0.1,0-0.3,0.1-0.4
	c0-0.1,0.1-0.2,0.2-0.1c0.1,0,0.2,0,0.2,0.1c0,0.1,0,0.2,0,0.3c0,0.2,0,0.3,0,0.6c0,0.2,0,0.5,0.1,0.7c0.2,1.1,0.9,2.1,1.9,2.6
	c1,0.5,2,0.8,3.1,0.8c1.3,0.1,2.5-0.4,3.5-1.3c0.8-0.8,1.2-1.8,1.3-2.8c0-0.1,0-0.1,0-0.2v-0.1c0-0.5-0.1-1-0.2-1.6
	c-0.1-0.5-0.3-1-0.6-1.4c-0.4-0.5-0.8-1-1.2-1.4c-0.5-0.5-1.1-1.1-1.9-1.7l-1.5-1.3c-1.2-0.9-2.3-2-3.2-3.3c-0.6-0.9-1-1.8-1.2-2.8
	v-0.6c0-0.2,0-0.4,0-0.6c-0.1-1.7,0.6-3.3,1.9-4.4c1.4-1.2,3.2-1.8,5.1-1.7c0.7,0,1.2,0,1.7,0.1c0.5,0,1,0.1,1.4,0.3l0.7,0.1h0.4
	c0.1,0,0.2,0,0.3,0c0,0,0,0.1,0,0.2s0,0.1,0,0.3c0,0.2,0,0.4,0,0.7s0,0.7,0,1.1s0,0.9,0,1.5c0,0.2,0,0.4,0,0.6
	c0,0.1-0.1,0.2-0.2,0.2c-0.1,0-0.2,0-0.2-0.1c0-0.1-0.1-0.2-0.1-0.3c0-0.1,0-0.2,0-0.4c0-0.1-0.1-0.3-0.1-0.5c0-0.2-0.1-0.3-0.2-0.5
	c0-0.1-0.1-0.3-0.2-0.4c-0.1-0.1-0.1-0.2-0.2-0.4c-0.2-0.2-0.3-0.3-0.5-0.5c-0.4-0.3-0.8-0.5-1.3-0.7c-0.7-0.2-1.4-0.3-2.2-0.3
	c-1.1,0-2.1,0.3-3,1c-0.8,0.7-1.2,1.8-1.2,2.8c0,0.3,0,0.6,0.1,0.9c0.1,0.3,0.2,0.6,0.3,0.8c0.3,0.6,0.8,1.2,1.3,1.7
	c0.6,0.6,1.4,1.3,2.5,2.2l1,0.7c1.1,0.8,2,1.7,2.9,2.7c0.6,0.7,1.2,1.5,1.5,2.4c0.2,0.5,0.3,0.9,0.4,1.4c0.1,0.5,0.1,0.9,0.1,1.4
	c0,0.5-0.1,1-0.1,1.4c-0.1,0.6-0.3,1.2-0.6,1.7c-0.2,0.5-0.5,0.9-0.8,1.3c-0.4,0.5-0.8,0.9-1.3,1.2c-0.7,0.5-1.5,0.9-2.4,1.1
	c-0.9,0.2-1.8,0.3-2.7,0.3L271.7,65.9z"/>
<path class="st2" d="M291.5,49.6v5.9c0,1.7,0,3.1,0,4.4c0,1,0,2,0.1,3c0,0.4,0.1,0.9,0.3,1.3c0.2,0.4,0.6,0.6,1,0.6h0.3h0.3h0.5h0.4
	c0.1,0,0.2,0,0.2,0.1c0,0,0,0.1,0,0.1c0,0.1-0.1,0.2-0.1,0.2c-0.1,0-0.3,0-0.4,0h-1.8h-1h-1h-0.9h-0.9H288h-0.8h-0.6
	c-0.1,0-0.3,0-0.4,0c-0.1,0-0.2-0.1-0.1-0.2c0,0,0-0.1,0-0.1c0.1,0,0.1-0.1,0.2-0.1h0.5h0.3h0.2c0.3-0.1,0.6-0.3,0.7-0.6
	c0.1-0.4,0.2-0.8,0.3-1.3c0.1-1,0.2-2,0.2-3c0-1.3,0-2.7,0-4.3V44.5c0-0.7,0-1.4,0-2.1v-0.1c0-0.5-0.1-0.9-0.3-1.3
	c-0.2-0.3-0.5-0.5-0.8-0.6h-0.1H287h-0.4h-0.3c-0.1,0-0.1,0-0.2,0c-0.1,0-0.1-0.1-0.1-0.1c0-0.1,0-0.2,0.1-0.2c0.1,0,0.3,0,0.4,0
	h0.6c0.2,0,0.5,0,0.7,0h0.7h0.9h0.9h0.9h2c0.1,0,0.3,0,0.4,0c0.1,0,0.1,0.1,0.1,0.2c0,0.1,0,0.1-0.1,0.1c-0.1,0-0.1,0-0.2,0h-0.1
	h-0.3h-0.4c-0.4,0-0.7,0.3-0.9,0.6c-0.2,0.4-0.3,0.9-0.3,1.3v0.1c0,0.5,0,1.2,0,2.1L291.5,49.6L291.5,49.6z"/>
<path class="st2" d="M310.7,41.3v14.3c0,1.7,0,3.1,0,4.4c0,1,0,2,0.1,3c0,0.4,0.1,0.9,0.3,1.3c0.2,0.4,0.6,0.6,1,0.6h0.3h0.3h0.5
	h0.4c0.1,0,0.2,0,0.2,0.1c0,0,0,0.1,0,0.1c0,0.1-0.1,0.2-0.1,0.2c-0.1,0-0.3,0-0.4,0h-1.7h-1h-1h-0.9H308h-0.6h-0.7H306
	c-0.1,0-0.3,0-0.4,0c-0.1,0-0.1-0.1-0.1-0.2c0,0,0-0.1,0-0.1c0.1-0.1,0.1-0.1,0.2-0.1h0.5h0.3h0.2c0.3-0.1,0.6-0.3,0.7-0.6
	c0.1-0.4,0.2-0.8,0.3-1.3c0.1-1,0.2-2,0.2-3c0-1.3,0-2.7,0-4.3V41.3l-5,0.1c-0.8,0-1.5,0.1-2.3,0.3c-0.5,0.1-0.9,0.4-1.2,0.8
	c-0.2,0.3-0.3,0.5-0.4,0.7c-0.1,0.1-0.1,0.3-0.2,0.4c0,0.1-0.1,0.2-0.2,0.3c-0.1,0-0.1,0-0.2,0c0,0-0.1,0-0.1,0c0-0.1,0-0.2,0-0.2
	c0-0.1,0-0.3,0.1-0.6s0.1-0.7,0.2-1.1c0,0,0,0,0-0.1l0,0c0.1-0.4,0.2-0.7,0.2-1l0.1-0.6V40c0,0,0-0.1,0-0.1c0-0.1,0-0.2,0.1-0.3
	c0-0.1,0-0.1,0.1-0.1c0.1,0,0.2,0,0.2,0.1l0.3,0.1c0.1,0.1,0.3,0.1,0.4,0.1l0.5,0.1h0.4h0.6h1.1h0.8h12.7c0.4,0,0.7,0,1.1,0h0.9h0.2
	h0.2l0.6-0.1c0.1,0,0.2,0,0.3,0c0.1,0,0.1,0,0.2,0.1c0,0.1,0,0.2,0,0.3c0,0.2,0,0.4,0,0.7s0,0.6,0,0.9v0.4c0,0.4,0,0.7,0,1
	c0,0.3,0,0.5,0,0.6c0,0.1,0,0.2-0.1,0.3c0,0.1-0.1,0.1-0.2,0.1c-0.1,0-0.2,0-0.2-0.1c0-0.1-0.1-0.3-0.1-0.5v-0.4
	c-0.1-0.5-0.4-1-0.9-1.3c-1-0.5-2.1-0.6-3.2-0.6l-4.3-0.1L310.7,41.3z"/>
<path class="st2" d="M331.4,59.5v-2.8c0-0.6,0-1.2-0.2-1.8c-0.1-0.4-0.2-0.8-0.4-1.3c0-0.1-0.1-0.2-0.1-0.3c0-0.1-0.1-0.2-0.1-0.3
	c0-0.2-0.4-0.7-1-1.8c-0.6-1-1.3-2.1-2-3.3c0,0,0-0.1,0-0.1c0,0,0-0.1,0-0.1c-0.6-1-1.1-1.8-1.7-2.7l-1.2-1.9
	c-0.4-0.6-0.8-1.1-1.2-1.6c-0.3-0.4-0.7-0.7-1.1-0.9l-0.2-0.1l-0.3-0.1c-0.2-0.1-0.3-0.2-0.5-0.2c-0.1,0-0.3,0-0.4,0
	c-0.1,0-0.2,0-0.2,0c-0.1,0-0.1-0.1-0.1-0.2c0-0.1,0-0.1,0.1-0.2c0.1,0,0.2,0,0.3,0h1.7h0.1h1h0.9h0.7h1.8c0.1,0,0.2,0,0.4,0
	c0,0,0.1,0.1,0.1,0.2c0,0,0,0.1,0,0.1c0,0-0.1,0-0.1,0l-0.2-0.1c-0.1,0-0.1,0.1-0.2,0.1c-0.1,0.1-0.2,0.1-0.3,0.3
	c-0.1,0.1-0.1,0.2-0.1,0.3c0,0.2,0,0.4,0.1,0.6c0.1,0.2,0.2,0.5,0.3,0.7c0.1,0.2,0.5,0.9,1.1,2c0.6,1.1,1.3,2.2,2,3.4l2,3.4
	c0.6,1,1,1.7,1.1,1.9c0.2-0.3,0.5-1,1-1.9c0.5-1,1.1-2,1.7-3c0,0,0-0.1,0.1-0.1l0.1-0.1c0.6-1.1,1.2-2.1,1.7-3
	c0.5-0.9,0.9-1.5,1.1-1.8c0.2-0.3,0.3-0.6,0.5-1c0.1-0.2,0.1-0.5,0.1-0.8c0-0.2,0-0.4-0.1-0.6c-0.1-0.2-0.2-0.3-0.4-0.3H339h-0.2
	l-0.3-0.1c-0.1,0-0.1-0.1-0.1-0.2c0-0.1,0-0.1,0.2-0.2c0.1,0,0.3,0,0.4,0h0.5h0.4h0.4h0.5h0.9h1h1.8c0.1,0,0.2,0,0.3,0
	c0.1,0,0.1,0.1,0.1,0.2c0,0.1,0,0.2-0.1,0.2c-0.1,0-0.2,0-0.3,0H344c-0.2,0-0.4,0.1-0.6,0.2l-0.2,0.1c-0.1,0-0.2,0.1-0.2,0.1
	l-0.4,0.3c-0.1,0.1-0.3,0.2-0.4,0.3c-0.2,0.1-0.3,0.3-0.5,0.5l-0.5,0.6c-0.5,0.6-0.9,1.2-1.3,1.9l-1.9,3l-0.1,0.3
	c-0.1,0.1-0.1,0.2-0.2,0.2c-0.7,1.2-1.3,2.3-1.9,3.3s-0.9,1.7-1.1,2.1c-0.2,0.4-0.3,0.8-0.4,1.3c-0.1,0.4-0.1,0.8-0.1,1.2v3.8
	c0,0.3,0,0.8,0,1.4s0,1.3,0.1,2c0,0.4,0.2,0.9,0.4,1.3c0.2,0.4,0.6,0.6,1,0.6h0.3h0.3h0.5h0.4c0.1,0,0.2,0,0.2,0.1c0,0,0,0.1,0,0.1
	c0,0.1,0,0.2-0.1,0.2c-0.1,0-0.3,0-0.4,0h-1.6h-1h-1h-0.9h-0.9h-0.6h-0.7h-0.6c-0.1,0-0.3,0-0.4,0c-0.1,0-0.2-0.1-0.1-0.2
	c0,0,0-0.1,0-0.1c0.1,0,0.1-0.1,0.2-0.1h0.5h0.3h0.2c0.3-0.1,0.6-0.3,0.8-0.6c0.2-0.4,0.3-0.8,0.3-1.3c0-0.7,0.1-1.4,0.1-2
	C331.3,60.3,331.3,59.8,331.4,59.5L331.4,59.5L331.4,59.5z"/>
<g>
	<path class="st3" d="M131.2,95.7V83.3h3.1v17.8h-3.1l-9.3-12.4v12.4h-3.1V83.3h3.1L131.2,95.7z"/>
	<path class="st3" d="M148.9,83.3c0.9,0,1.7,0.3,2.3,0.9c0.6,0.6,0.9,1.4,0.9,2.3v14.6H149V95h-9.3v6.1h-3.1V86.5
		c0-0.9,0.3-1.7,0.9-2.3c0.6-0.6,1.4-0.9,2.3-0.9H148.9z M149,91.9v-5.6h-9.3v5.6H149z"/>
	<path class="st3" d="M166.7,83.3c0.9,0,1.7,0.3,2.3,0.9c0.6,0.6,0.9,1.4,0.9,2.3v14.6h-3.1V95h-9.3v6.1h-3.1V86.5
		c0-0.9,0.3-1.7,0.9-2.3c0.6-0.6,1.4-0.9,2.3-0.9H166.7z M166.8,91.9v-5.6h-9.3v5.6H166.8z"/>
	<path class="st3" d="M175.3,98h12.4v3.1h-12.3c-0.9,0-1.6-0.3-2.3-0.9c-0.6-0.6-0.9-1.4-0.9-2.3V86.5c0-0.9,0.3-1.7,0.9-2.3
		c0.6-0.6,1.4-0.9,2.3-0.9h12.3v3.1h-12.4V98z"/>
	<path class="st3" d="M211.6,101.1h-12.3c-0.9,0-1.6-0.3-2.3-0.9c-0.6-0.6-0.9-1.4-0.9-2.3V86.5c0-0.9,0.3-1.7,0.9-2.3
		c0.6-0.6,1.4-0.9,2.3-0.9h12.3v3.1h-12.4V98h9.3v-4.3h-5.7v-3.1h8.8V101.1z"/>
	<path class="st3" d="M229.4,101.1H225l-5.4-7.1H217v7.1h-3.1V83.3h12.3c0.9,0,1.7,0.3,2.3,0.9c0.6,0.6,0.9,1.4,0.9,2.3v4.3
		c0,0.9-0.3,1.6-0.9,2.3S227,94,226.1,94h-2.1L229.4,101.1z M226.2,86.4H217v4.6h9.3V86.4z"/>
	<path class="st3" d="M243.8,83.3c0.9,0,1.7,0.3,2.3,0.9c0.6,0.6,0.9,1.4,0.9,2.3v14.6h-3.1V95h-9.3v6.1h-3.1V86.5
		c0-0.9,0.3-1.7,0.9-2.3c0.6-0.6,1.4-0.9,2.3-0.9H243.8z M243.9,91.9v-5.6h-9.3v5.6H243.9z"/>
	<path class="st3" d="M249.4,101.1V83.3h12.3c0.9,0,1.7,0.3,2.3,0.9s0.9,1.4,0.9,2.3v11.4c0,0.9-0.3,1.7-0.9,2.3
		c-0.6,0.6-1.4,0.9-2.3,0.9H249.4z M252.5,98h9.3V86.4h-9.3V98z"/>
	<path class="st3" d="M282.6,101.1h-12.3c-0.9,0-1.6-0.3-2.3-0.9c-0.6-0.6-0.9-1.4-0.9-2.3V86.5c0-0.9,0.3-1.7,0.9-2.3
		c0.6-0.6,1.4-0.9,2.3-0.9h12.3v3.1h-12.4v4.3h12.4v3.1h-12.4V98h12.4V101.1z"/>
</g>
<g>
	<linearGradient id="SVGID_2_" gradientUnits="userSpaceOnUse" x1="292.8701" y1="89.2744" x2="324.5195" y2="89.2744">
		<stop  offset="0" style="stop-color:#393185"/>
		<stop  offset="1" style="stop-color:#0082C9"/>
	</linearGradient>
	<path class="st4" d="M304.9,75h7.6l12,28.5h-8.4l-2.1-5.1h-10.9l-2,5.1h-8.2L304.9,75z M311.8,92.4l-3.2-8l-3.2,8H311.8z"/>
</g>
<polygon class="st5" points="299.8,75 118.8,75 118.8,75.8 299.2,75.8 287.4,103.5 288.2,103.7 300.1,75.5 300.3,75 "/>
<linearGradient id="SVGID_3_" gradientUnits="userSpaceOnUse" x1="319.5851" y1="89.2727" x2="344.9515" y2="89.2727">
	<stop  offset="0" style="stop-color:#393185"/>
	<stop  offset="1" style="stop-color:#0082C9"/>
</linearGradient>
<polygon class="st6" points="345,86.4 335.6,86.4 335.6,75 328.9,75 328.9,86.4 319.6,86.4 322.3,92.9 328.9,92.9 328.9,103.5 
	335.6,103.5 335.6,92.9 345,92.9 "/>
</svg>
