<svg width="225" height="46" viewBox="0 0 225 46" fill="none" xmlns="http://www.w3.org/2000/svg">
<path d="M39.1721 28.2613C32.544 30.4273 30.9448 36.5516 22.4992 36.5516C14.7462 36.5516 8.50015 30.3979 8.50015 22.6449C8.50015 22.6365 8.50015 22.5567 8.50015 22.5483C8.50015 14.7954 14.742 8.64167 22.4992 8.64167C30.9406 8.64167 32.544 14.7618 39.1721 16.9277C42.5092 18.0191 46.5473 18.292 46.5515 17.5868C46.5557 16.9319 45.0697 17.2048 43.2563 13.3472C39.1805 4.65814 31.3687 -0.316018 21.7268 0.0155932C10.0701 0.418563 0 10.0059 0 22.5316C0 22.5399 0 22.6449 0 22.6533C0 35.1789 10.0701 44.7663 21.7226 45.1693C31.3687 45.5009 39.1805 40.5309 43.2563 31.8377C45.0655 27.98 46.5515 28.2571 46.5515 27.5981C46.5515 26.9013 42.5134 27.1741 39.1721 28.2613Z" fill="url(#paint0_linear)"/>
<path d="M55.2825 17.717C51.4291 17.717 49.9977 21.7342 41.9131 21.7342C33.3458 21.7342 28.9131 15.0474 22.5495 15.0474C18.3771 15.0474 14.998 18.4264 14.998 22.5989C14.998 26.7713 18.3771 30.1504 22.5495 30.1504C29.2741 30.1504 33.2618 23.4762 41.9131 23.4762C49.9809 23.4762 51.3535 27.4765 55.2825 27.4765C58.141 27.4765 60.0593 24.9537 60.0593 22.5989C60.0551 20.244 58.1242 17.717 55.2825 17.717Z" fill="url(#paint1_linear)"/>
<path d="M66.7212 22.586C66.7212 15.2025 72.304 10.1611 79.5071 10.1611C84.8003 10.1611 87.8645 13.0407 89.5562 16.0336L85.1613 18.1954C84.1538 16.2519 81.9921 14.7029 79.5071 14.7029C75.15 14.7029 71.9808 18.0526 71.9808 22.5902C71.9808 27.1279 75.15 30.4776 79.5071 30.4776C81.9921 30.4776 84.1538 28.9664 85.1613 26.9851L89.5562 29.1091C87.8267 32.0978 84.8003 35.0152 79.5071 35.0152C72.304 35.011 66.7212 29.9696 66.7212 22.586Z" fill="#0F0DA1"/>
<path d="M90.9034 34.5787V17.1838H95.4788V19.5597C96.7045 18.0107 98.8621 16.7515 101.024 16.7515V21.2177C100.701 21.1464 100.268 21.1086 99.7646 21.1086C98.2535 21.1086 96.2344 21.9733 95.4788 23.0899V34.5787H90.9034Z" fill="#0F0DA1"/>
<path d="M101.259 25.8645C101.259 20.9323 104.718 16.7515 110.443 16.7515C116.207 16.7515 119.661 20.9281 119.661 25.8645C119.661 30.8344 116.202 35.0111 110.443 35.0111C104.718 35.0111 101.259 30.8344 101.259 25.8645ZM114.91 25.8645C114.91 23.1612 113.289 20.8231 110.443 20.8231C107.597 20.8231 106.015 23.1654 106.015 25.8645C106.015 28.6013 107.601 30.9436 110.443 30.9436C113.285 30.9436 114.91 28.6013 114.91 25.8645Z" fill="#0F0DA1"/>
<path d="M120.077 32.312L122.058 29.105C123.317 30.2929 125.911 31.4809 128.073 31.4809C130.054 31.4809 130.99 30.6875 130.99 29.6087C130.99 26.7292 120.656 29.0672 120.656 22.2251C120.656 19.3078 123.212 16.7515 127.788 16.7515C130.743 16.7515 133.081 17.7589 134.81 19.1273L132.972 22.2587C131.926 21.1422 129.945 20.2439 127.821 20.2439C126.163 20.2439 125.084 20.9994 125.084 21.9733C125.084 24.5674 135.385 22.4056 135.385 29.4282C135.385 32.5974 132.686 35.0111 127.859 35.0111C124.828 35.0111 121.911 34.0036 120.077 32.312Z" fill="#0F0DA1"/>
<path d="M135.906 32.312L137.887 29.105C139.147 30.2929 141.741 31.4809 143.902 31.4809C145.884 31.4809 146.82 30.6875 146.82 29.6087C146.82 26.7292 136.485 29.0672 136.485 22.2251C136.485 19.3078 139.042 16.7515 143.617 16.7515C146.572 16.7515 148.91 17.7589 150.64 19.1273L148.801 22.2587C147.756 21.1422 145.775 20.2439 143.651 20.2439C141.993 20.2439 140.914 20.9994 140.914 21.9733C140.914 24.5674 151.215 22.4056 151.215 29.4282C151.215 32.5974 148.516 35.0111 143.688 35.0111C140.658 35.0111 137.74 34.0036 135.906 32.312Z" fill="#0F0DA1"/>
<path d="M152.067 25.8645C152.067 20.5335 155.92 16.7515 161.285 16.7515C164.848 16.7515 167.01 18.3004 168.165 19.8829L165.176 22.6911C164.349 21.4654 163.085 20.8189 161.503 20.8189C158.728 20.8189 156.785 22.8338 156.785 25.8603C156.785 28.8867 158.728 30.9394 161.503 30.9394C163.09 30.9394 164.349 30.2174 165.176 29.0672L168.165 31.8419C167.01 33.4621 164.853 35.0111 161.285 35.0111C155.92 35.0111 152.067 31.2332 152.067 25.8645Z" fill="#0F0DA1"/>
<path d="M168.131 25.8645C168.131 20.9323 171.59 16.7515 177.315 16.7515C183.079 16.7515 186.533 20.9281 186.533 25.8645C186.533 30.8344 183.075 35.0111 177.315 35.0111C171.586 35.0111 168.131 30.8344 168.131 25.8645ZM181.777 25.8645C181.777 23.1612 180.157 20.8231 177.311 20.8231C174.465 20.8231 172.883 23.1654 172.883 25.8645C172.883 28.6013 174.469 30.9436 177.311 30.9436C180.153 30.9436 181.777 28.6013 181.777 25.8645Z" fill="#0F0DA1"/>
<path d="M193.141 32.3498V41.2109H188.565V17.1838H193.141V19.3792C194.471 17.6875 196.381 16.7515 198.505 16.7515C202.971 16.7515 206.212 20.0634 206.212 25.8645C206.212 31.6656 202.971 35.0111 198.505 35.0111C196.457 35.0111 194.547 34.1505 193.141 32.3498ZM201.46 25.8645C201.46 22.8758 199.697 20.8231 197.065 20.8231C195.588 20.8231 193.896 21.6879 193.141 22.8044V28.9623C193.896 30.0411 195.588 30.9436 197.065 30.9436C199.697 30.9436 201.46 28.8909 201.46 25.8645Z" fill="#0F0DA1"/>
<path d="M207.282 25.8645C207.282 20.8231 210.993 16.7515 216.286 16.7515C221.474 16.7515 225 20.6426 225 26.3304V27.3378H212.071C212.361 29.5332 214.124 31.3717 217.079 31.3717C218.557 31.3717 220.609 30.7253 221.726 29.6423L223.741 32.5974C222.011 34.1841 219.274 35.0111 216.575 35.0111C211.278 35.0111 207.282 31.4473 207.282 25.8645ZM216.286 20.3908C213.44 20.3908 212.214 22.5148 212 24.2442H220.572C220.462 22.5861 219.308 20.3908 216.286 20.3908Z" fill="#0F0DA1"/>
<defs>
<linearGradient id="paint0_linear" x1="0.0010494" y1="22.5943" x2="46.554" y2="22.5943" gradientUnits="userSpaceOnUse">
<stop stop-color="#EC60F4"/>
<stop offset="0.7658" stop-color="#6600DD"/>
<stop offset="1" stop-color="#0D0DA0"/>
</linearGradient>
<linearGradient id="paint1_linear" x1="15.0004" y1="22.5944" x2="60.0571" y2="22.5944" gradientUnits="userSpaceOnUse">
<stop stop-color="#EC60F4"/>
<stop offset="0.7658" stop-color="#6600DD"/>
<stop offset="1" stop-color="#0D0DA0"/>
</linearGradient>
</defs>
</svg>
