<svg xmlns="http://www.w3.org/2000/svg" version="1.1" xmlns:xlink="http://www.w3.org/1999/xlink" xmlns:svgjs="http://svgjs.com/svgjs" width="2000" height="1000" preserveAspectRatio="none" viewBox="0 0 2000 1000"><g mask="url(&quot;#SvgjsMask2194&quot;)" fill="none"><rect width="2000" height="1000" x="0" y="0" fill="url(#SvgjsLinearGradient2195)"></rect><circle r="10.165" cx="991.4449999999999" cy="107.39500000000001" filter="url(#SvgjsFilter2196)" fill="rgba(51, 121, 194, 0.58)"></circle><circle r="12.88" cx="364.87" cy="682.22" filter="url(#SvgjsFilter2196)" fill="rgba(51, 121, 194, 0.58)"></circle><circle r="15.1" cx="51.31" cy="1015.1" filter="url(#SvgjsFilter2196)" fill="rgba(51, 121, 194, 0.58)"></circle><circle r="12.46" cx="891.4100000000001" cy="982.86" filter="url(#SvgjsFilter2196)" fill="rgba(51, 121, 194, 0.58)"></circle><circle r="11.175" cx="422.735" cy="617.895" filter="url(#SvgjsFilter2196)" fill="rgba(51, 121, 194, 0.58)"></circle><circle r="9.37" cx="627.21" cy="570.36" filter="url(#SvgjsFilter2196)" fill="rgba(51, 121, 194, 0.58)"></circle><circle r="10.62" cx="129.72" cy="27.65" filter="url(#SvgjsFilter2196)" fill="rgba(51, 121, 194, 0.58)"></circle><circle r="9.805" cx="566.3349999999999" cy="47.305" filter="url(#SvgjsFilter2196)" fill="rgba(51, 121, 194, 0.58)"></circle><circle r="10.765" cx="573.175" cy="905.165" filter="url(#SvgjsFilter2196)" fill="rgba(51, 121, 194, 0.58)"></circle><circle r="13.325" cx="148.80499999999998" cy="369.385" filter="url(#SvgjsFilter2196)" fill="rgba(51, 121, 194, 0.58)"></circle><circle r="13.5" cx="1008.97" cy="225.17" filter="url(#SvgjsFilter2196)" fill="rgba(51, 121, 194, 0.58)"></circle><circle r="8.535" cx="1883.6950000000002" cy="393.475" filter="url(#SvgjsFilter2196)" fill="rgba(51, 121, 194, 0.58)"></circle><circle r="9.04" cx="1404.5" cy="986.61" filter="url(#SvgjsFilter2196)" fill="rgba(51, 121, 194, 0.58)"></circle><circle r="16.525" cx="195.695" cy="100.345" filter="url(#SvgjsFilter2196)" fill="rgba(51, 121, 194, 0.58)"></circle><circle r="14.05" cx="1119.59" cy="427.8" filter="url(#SvgjsFilter2196)" fill="rgba(51, 121, 194, 0.58)"></circle><circle r="11.12" cx="772.35" cy="519.43" filter="url(#SvgjsFilter2196)" fill="rgba(51, 121, 194, 0.58)"></circle><circle r="13.535" cx="927.4649999999999" cy="251.395" filter="url(#SvgjsFilter2196)" fill="rgba(51, 121, 194, 0.58)"></circle><circle r="10.015" cx="618.255" cy="997.9449999999999" filter="url(#SvgjsFilter2196)" fill="rgba(51, 121, 194, 0.58)"></circle><circle r="10.07" cx="1365.27" cy="848.5200000000001" filter="url(#SvgjsFilter2196)" fill="rgba(51, 121, 194, 0.58)"></circle><circle r="13.385" cx="168.315" cy="327.645" filter="url(#SvgjsFilter2196)" fill="rgba(51, 121, 194, 0.58)"></circle><path d="M1066.8 1026.8L1020.3 1000.9 1015.3 982.1 1031 990.9C1032.4 992.3 1034.3 991.3 1035.7 989.9 1036.2 988.5 1035.7 986.1 1034.2 985.7L1012.9 973.2 1007.5 954.8 1025.9 959.8 1038.4 981.4C1038.4 981.4 1038.9 981.8 1038.9 981.8 1039.9 982.8 1041.8 982.7 1043.2 982.3 1044.6 980.8 1045 979.4 1044.1 977.5L1034.9 962.1 1053.4 967.1 1080.7 1012.5C1080.7 1012.5 1080.7 1013.4 1080.7 1013.4 1081.7 1014.4 1083.6 1014.3 1085 1013.9 1086.9 1012.9 1087.3 1010.5 1085.9 1009.1L1062.3 969.3 1085 974.7 1095.6 992.5C1095.6 992.5 1095.6 992.5 1096.1 993 1097 993.9 1098.5 994.4 1099.9 993.9 1101.3 992.5 1102.2 990.6 1101.2 988.7L1094 977 1110.6 981C1112.5 982 1113.9 980.5 1114.3 979.1 1115.2 977.2 1114.3 975.3 1111.9 974.9L1095.8 970.4 1107.5 964.1C1108.9 962.7 1109.9 960.8 1108.4 959.4 1107.5 957.5 1106.1 957.1 1104.2 958L1086.4 968.6 1064.2 962.7 1104.4 938.7C1105.8 938.2 1106.3 935.8 1105.3 934 1104.4 933 1102.5 932.1 1100.6 933.1L1055.2 960.4 1036.7 955.5 1052.2 946.3C1054.1 945.4 1054 943.5 1053.1 941.6 1052.6 940.2 1050.2 939.8 1048.8 940.2L1027.8 953.2 1008.8 948.7 1022.4 934.9 1046.9 934.6C1048.8 934.6 1050.2 933.2 1050.1 931.3 1050.6 929.8 1048.7 928 1046.8 928L1028.9 928.2 1042.4 914.4 1095.7 914.3C1097.6 914.2 1099 912.8 1098.9 910.9 1098.9 909 1097.5 907.6 1095.6 907.7L1048.9 907.7 1064.8 891.5 1085.5 891.3C1087.4 891.3 1088.8 889.8 1088.8 887.9 1088.8 886.1 1087.3 884.7 1085.5 884.7L1071.8 884.4 1083.4 872.4C1084.8 871 1084.8 869.1 1083.4 867.7 1082 866.3 1080.1 866.4 1078.7 867.8L1067 879.7 1066.9 866.5C1066.9 864.6 1065.4 863.2 1063.5 863.2S1060.3 864.7 1060.3 866.6L1060.5 886.4 1044.2 903 1043.7 856.9C1043.6 855 1042.2 853.6 1040.3 853.6 1038.4 853.6 1037 855 1037.1 856.9L1037.6 909.7 1024.1 923.5 1023.9 905.6C1023.9 903.7 1022.5 902.3 1020.6 902.4 1018.7 902.4 1017.3 903.8 1017.3 905.7L1017.6 930.2 1004.5 943.6 999.6 925.7 1011.7 903.9C1012.1 902.5 1011.6 900.1 1010.2 899.6 1008.3 898.7 1006.9 899.2 1005.5 900.6L996.7 916.3 991.8 898.4 1017.7 852C1018.6 850.1 1018.1 848.6 1016.7 847.2 1014.8 846.3 1012.9 847.3 1012 848.2L988.9 889 983 866.5 992.7 848.9C994.1 847.5 993.1 845.6 991.7 844.2 990.3 843.8 987.9 844.3 987 846.2L980.5 857.5 975.6 841.6C975.6 839.7 973.7 838.8 971.3 839.3 969.9 839.7 969 841.6 969.5 843.1L973.9 859.5 962.1 852.6C960.2 851.6 958.3 852.6 957.8 854 956.4 855.5 956.9 856.9 957.9 857.8 958.4 858.3 958.4 858.3 958.8 858.7L976.4 868.4 982.3 891 942 868.3C940.5 866.9 938.7 867.9 937.3 869.3 936.8 870.8 937.3 872.2 938.2 873.1 938.7 873.6 938.7 873.6 938.7 873.6L985.2 900.4 990.1 918.3 974.5 909.5C972.6 908.5 971.2 909 969.8 910.5 969.3 911.9 969.3 913.8 970.3 914.7 970.8 915.2 970.8 915.2 971.2 915.6L993.1 927.7 998 945.5 980 941 967 919.9C966.1 918 963.7 917.6 962.3 918.1 960.9 919.5 960 921.4 961.4 922.8L970.5 938.3 952.1 934.2 924.7 887.9C924.2 886.5 921.9 886 920.5 886.5 919.1 887.9 918.2 889.8 919.1 891.7L942.7 931.5 920.4 925.6 910.3 908.3C909.4 906.4 907 906 905.6 907.4 904.2 907.9 903.3 909.8 904.3 911.7L911.5 923.4 894.9 919.3C893.5 918.8 891.6 919.8 890.7 921.7 890.7 922.6 891.2 924.1 892.1 925 892.1 925 892.6 925.5 893.1 925.9L909.6 930 897.9 937.2C896.5 937.7 896.1 940 896.6 941.4 897 941.9 897 941.9 897 941.9 898.5 943.3 900.4 943.3 901.3 942.3L918.6 932.2 941.3 937.6 901 961.7C899.6 963.1 899.2 964.5 900.1 966.4 900.1 966.4 900.6 966.9 900.6 966.9 901.6 967.8 903 968.2 904.9 967.3L950.8 940.4 968.7 944.9 953.3 954C951.9 955.4 951 957.3 952.4 958.7 951.9 959.2 952.4 959.7 952.4 959.7 953.3 960.6 955.2 960.6 956.6 960.1L977.7 947.1 996.2 952.1 983.1 965.5 958.6 965.7C956.7 965.8 954.8 967.7 954.9 969.6 955.3 971 956.8 972.4 958.2 972.8L976.6 972.1 963.1 986 910.3 986.5C908.4 986.6 907 988 907 989.9 907 991.8 908.5 993.2 910.3 993.1L956.5 992.6 940.2 1009.3 920.4 1009.5C918.5 1009.6 917.1 1011 917.2 1012.9S918.6 1016.2 920.5 1016.1L933.7 1016 922 1027.9C920.6 1029.3 920.7 1031.2 922.1 1032.6 923.5 1034 925.4 1034 926.8 1032.6L938.5 1020.7 939.1 1034.3C939.1 1035.3 939.1 1036.2 939.6 1036.7 940 1037.1 941.5 1037.6 942.4 1037.6 944.3 1037.6 945.7 1036.1 945.7 1034.2L945 1014 961.3 997.3 962.3 1044C962.3 1044.9 962.3 1045.8 962.8 1046.3 963.3 1046.8 964.7 1047.2 965.6 1047.2 967.5 1047.2 968.9 1045.8 968.9 1043.9L967.8 990.6 981.3 976.8 981.1 995.2C981.1 996.1 982 997.1 982.5 997.5 983 998 983.5 998.5 984.4 998.5 986.3 998.4 988.2 996.5 987.7 995.1L987.9 970.1 1000.9 956.8 1006.3 975.1 993.8 996.5C993.4 997.9 993.4 999.8 994.3 1000.7 994.8 1001.2 994.8 1001.2 995.3 1000.7 996.7 1002.1 999.1 1001.6 1000 999.7L1008.8 984.1 1014.2 1002.4 987.3 1048.9C986.9 1050.3 987.4 1051.7 988.3 1052.6 988.8 1053.1 988.8 1053.1 988.8 1053.1 990.7 1054 992.6 1054 993.5 1052.1L1016.6 1011.3 1022.5 1033.9 1012.8 1051.4C1011.9 1053.3 1012.4 1054.7 1013.3 1055.7 1013.3 1055.7 1013.8 1056.1 1013.8 1056.1 1015.7 1057 1017.6 1056.1 1018.5 1055.1L1025 1042.8 1029.4 1059.3C1029.9 1059.7 1030.3 1060.2 1030.8 1060.7 1031.3 1061.1 1032.7 1061.6 1033.7 1061.6 1035.5 1060.6 1036.9 1059.2 1036 1057.3L1031.5 1040.8 1043.4 1047.8C1045.3 1048.7 1047.2 1047.7 1048.1 1046.8 1049 1044.9 1048.1 1043 1046.6 1041.6L1029.1 1031.9 1022.7 1009.8 1063 1032.5C1064.9 1033.4 1067.3 1032.9 1067.7 1031.5 1068.7 1029.6 1068.6 1027.7 1066.8 1026.8Z" fill="rgba(51, 121, 194, 0.58)"></path><path d="M1676.8 151.7L1691.3 179.2 1672.6 179.3C1670.6 179.1 1668.4 180.9 1667.8 183.7 1668.4 186.1 1670.2 188.3 1672.7 187.7L1696.1 188.4 1708.4 209.4 1659.4 207.7C1657 208.3 1654.8 210.1 1654.7 212.1 1654.8 215.3 1656.6 217.4 1659.1 216.8L1713.2 218.5 1730.8 251.1 1688.6 245.2 1713.3 280 1676.2 279.3 1649.8 232C1650.3 231.3 1649.5 230.8 1648.8 230.4 1647.3 229.4 1645.3 229.3 1643.6 230.3 1641.9 231.4 1641.3 234.1 1641.9 236.6L1665.9 279.2 1641.6 278 1630.2 257.5C1629.9 256.3 1629.1 255.8 1628.4 255.4 1627.6 254.9 1625.6 254.8 1623.9 255.8 1622.2 256.9 1621.6 259.6 1622.7 261.3L1631.3 278 1600.2 277.8C1597.4 277.2 1596 279.4 1595.4 282.2 1595.3 284.2 1597.1 286.3 1600.3 286.2L1630.9 287.1 1621.2 303.1C1619.8 305.3 1621.2 308.2 1622.7 309.2 1625 310.6 1627.4 310 1628.8 307.7L1641.3 287.2 1665.5 288.4 1640.6 329.4C1639.2 331.7 1639.8 334.1 1642.1 335.5 1643.6 336.4 1646.8 336.3 1648.2 334L1675.9 288.4 1712.9 289.1 1687.4 322.5 1729.2 318.8 1709.8 350.7 1656.5 349.5C1653.3 349.6 1651.9 351.9 1651.7 353.9 1651.5 355.8 1653.4 358 1656.1 358.6L1704.7 359 1692.3 379.5 1668.3 379.6C1665.6 378.9 1663.4 380.8 1663.6 384 1663.4 385.9 1665.2 388.1 1668.4 387.9L1686.7 388.7 1670.6 415.2C1669.2 417.5 1669.8 420 1672 421.4S1676.8 422.1 1678.2 419.9L1694.3 393.3 1703.4 409.2C1704.7 412.1 1707.5 412.7 1709.1 411.7 1712.1 410.3 1712.7 407.6 1710.9 405.4L1699.9 384.2 1712.3 363.7 1735.1 406.6C1736.9 408.8 1739.6 409.4 1741.3 408.3 1744.2 407 1744.9 404.2 1743 402.1L1717.4 355.3 1736.8 323.4 1752.7 362.2 1770.6 324.2 1788.3 356.8 1760.6 402.4C1759.2 404.6 1760.5 407.5 1762.1 408.5 1764.3 409.9 1766.8 409.3 1768.2 407L1793.6 365.2 1805.3 386.9 1792.9 407.4C1791.5 409.7 1792.1 412.1 1794.4 413.5 1795.9 414.5 1799.1 414.3 1800.5 412L1810.2 396.1 1825.1 422.9C1826.4 425.8 1829.2 426.4 1831.3 424.6 1833 423.5 1834.4 421.2 1832.6 419.1L1818.1 391.6 1836.9 391.5C1838.8 391.7 1841 389.9 1841.2 387.9 1841.3 385.9 1840.3 384.2 1839.5 383.8 1838.7 383.3 1838 382.8 1836.8 383.1L1813.3 382.4 1801.1 361.4 1850 363.1C1852.4 362.5 1854.6 360.7 1854.7 358.7 1854.9 356.7 1853.8 355 1852.3 354.1 1851.6 353.7 1851.6 353.7 1850.3 354L1796.2 352.3 1778.6 319.7 1820.8 325.6 1796.1 290.8 1833.2 291.5 1859.6 338.8C1860.6 340.4 1862.9 341.8 1865.8 340.5 1867.5 339.4 1868.1 336.7 1867.5 334.2L1843.5 291.6 1867.8 292.8 1879.2 313.3C1879.8 315.7 1882.6 316.3 1885.5 315 1887.2 313.9 1887.8 311.2 1887.2 308.7L1878.1 292.8 1909.2 293C1912 293.6 1913.4 291.4 1914 288.6 1913.7 287.4 1912.6 285.7 1911.9 285.3 1911.1 284.8 1910.4 284.3 1909.1 284.6L1878.5 283.7 1888.2 267.7C1889.6 265.5 1888.2 262.6 1886.7 261.6L1886.7 261.6C1884.4 260.2 1882 260.8 1880.6 263.1L1868.1 283.6 1843.9 282.4 1868.8 241.4C1870.2 239.1 1869.6 236.7 1867.4 235.3S1862.6 234.5 1861.2 236.8L1833.5 282.4 1796.5 281.7 1822 248.3 1780.2 252 1799.6 220.1 1853 221.3C1856.2 221.2 1857.5 218.9 1857.7 216.9 1857.9 215 1856.1 212.8 1853.3 212.2L1805.1 211 1817.2 191.2 1841.1 191.2C1843.8 191.9 1846 190 1845.8 186.8 1846 184.9 1844.2 182.7 1841.4 182.1L1822.7 182.1 1838.9 155.6C1840.2 153.3 1839.6 150.8 1837.4 149.4S1832.6 148.7 1831.3 150.9L1815.1 177.5 1806 161.6C1805.7 160.4 1805 159.9 1804.2 159.5 1802.7 158.5 1801.5 158.8 1800.3 159.1 1797.4 160.5 1796.7 163.2 1798.6 165.4L1809.6 186.6 1797.1 207.1 1774.3 164.2C1773.6 163.7 1772.8 163.2 1772 162.8 1770.5 161.9 1769.3 162.2 1768.1 162.5 1765.2 163.8 1764.6 166.5 1766.4 168.7L1792 215.5 1772.6 247.4 1756.7 208.6 1738.8 246.6 1721.1 214 1748.8 168.4C1750.2 166.2 1748.9 163.3 1747.3 162.3 1745.1 160.9 1742.6 161.5 1741.2 163.8L1716.3 204.8 1704.1 183.9 1716.5 163.4C1717.9 161.1 1717.3 158.6 1715.1 157.3S1710.3 156.5 1709 158.8L1699.3 174.7 1684.3 147.9C1684 146.7 1683.3 146.3 1682.5 145.8 1681.7 145.3 1679.8 145.2 1678.1 146.2 1676.4 147.3 1675 149.6 1676.8 151.7ZM1756.1 230.1L1769 261.9 1803.2 258.7 1782.1 286.5 1801.8 314 1767.8 310 1753.3 340.7 1740.4 308.9 1706.2 312.1 1726.8 285.1 1707.6 256.8 1741.1 261.5 1756.1 230.1Z" fill="rgba(51, 121, 194, 0.58)"></path><path d="M1692.8 744.2L1686.9 771.5 1672.6 759.4C1671.2 758 1668.4 758 1666.1 759.7 1665 762 1665 764.8 1666.4 766.2L1685 782.4 1679.4 807.7 1642 774.4C1639.4 772.4 1636.6 772.4 1635.5 774.7 1633.3 776.4 1633.3 779.2 1635.8 781.1L1677.2 817.9 1672.7 840.9 1621.3 858.2 1605.6 844.7 1618.1 787.1C1617.8 786.2 1617.5 785.4 1617.3 784.5 1617 783.7 1615.6 782.3 1614.4 781.7 1611.3 780.9 1609.1 782.6 1609.1 785.4L1597.7 838 1578.8 820.9 1583.8 793.9C1584.7 793.6 1584.4 792.8 1584.1 791.9 1583.5 790.2 1582.1 788.8 1580.2 788.5 1578.2 788.3 1575.9 790 1574.8 792.2L1570.9 814.1 1547 793.1C1545.6 791.7 1542.8 791.7 1540.5 793.4 1539.4 795.7 1539.4 798.5 1540.8 799.9L1563.4 819.5 1545.7 825.4C1543.1 826.3 1542.3 829.4 1542.9 831.1 1543.7 833.6 1546.2 835.6 1548.8 834.7L1571.5 827.1 1590.4 844.2 1543.2 860C1540.7 860.9 1539.6 863.1 1540.4 865.6 1541.2 868.2 1543.5 869.3 1546 868.4L1598.3 850.9 1615.2 864.9 1604 918.4 1584.6 924.9 1542.1 887.6C1540.4 885.3 1536.8 885.6 1535.7 887.9 1533.4 889.5 1534.3 892.1 1536 894.3L1574.5 928.3 1550.1 936.5 1531.2 919.3C1529.8 917.9 1526.2 918.2 1524.8 919.6S1523.7 924.7 1525.3 927L1540 939.9 1510.5 949.7C1508 950.6 1507.1 953.7 1508 956.2 1508.5 957.9 1511.1 959.9 1513.6 959L1543.1 949.1 1539.5 969.1C1539.2 971.1 1540.1 973.6 1543.1 974.4 1545.1 974.7 1548.2 972.7 1548.5 970.8L1553.2 945.7 1577.6 937.5 1567.3 987.9C1567.4 990.7 1568.2 993.2 1571.3 994 1573.3 994.3 1576.4 992.3 1576.6 990.4L1587.8 934.1 1607.1 927.6 1648.3 963.5 1643.2 984.9 1591 1002.4C1588.5 1003.3 1587.3 1005.5 1588.2 1008.1 1589 1010.6 1591.6 1012.6 1594.1 1011.7L1641.3 995.9 1636.6 1020.9 1613.8 1028.5C1611.3 1029.4 1610.2 1031.6 1611 1034.2 1611.9 1036.7 1614.1 1037.8 1616.6 1037L1634.3 1031 1628.2 1060.3C1627.9 1062.2 1629.9 1065.3 1631.9 1065.6 1634.7 1065.6 1637.2 1064.7 1637.2 1061.9L1643.9 1031.6 1659.9 1045.9C1662.2 1047 1665 1047 1666.4 1045.6 1667.8 1044.2 1668.1 1042.2 1667.5 1040.5 1667.5 1040.5 1667.2 1039.7 1666.1 1039.1L1645.8 1020.6 1650.6 995.6 1691.4 1030.6C1693.1 1032.9 1695.9 1032.9 1697.9 1030.3 1698.4 1029.2 1699 1028.1 1698.4 1026.4 1698.1 1025.5 1697.8 1024.7 1697.6 1023.9L1652.8 985.4 1657.3 965.2 1708.7 947.9 1726.1 963.7 1715.3 1017.9C1714.4 1021 1716.1 1023.3 1718.9 1023.3 1721.2 1024.4 1723.4 1022.7 1724.3 1019.6L1734 970.4 1753.7 987.2 1748.7 1011.4C1748.4 1013.4 1750.1 1015.6 1752.4 1016.7 1755.2 1016.7 1757.7 1015.9 1757.7 1013.1L1761.9 994.8 1783 1013C1784.7 1015.3 1787.2 1014.4 1789.5 1012.7 1790 1011.6 1790.3 1009.6 1789.7 1007.9 1789.7 1007.9 1789.4 1007.1 1789.2 1006.3L1766.6 986.6 1787.7 979.6C1789.4 979 1791.4 976.5 1790.5 973.9 1789.7 971.4 1786.6 970.6 1784.9 971.1L1758.8 979.9 1739 963.1 1790.5 945.8C1793 945 1793.8 941.9 1793 939.3S1789.9 935.7 1787.3 936.5L1730.9 955.5 1714.8 941.2 1726 887.8 1747.9 880.4 1790.7 918.5C1792.9 919.7 1795.7 919.7 1798 918 1798.5 916.8 1798.8 914.9 1798.3 913.2 1798 912.3 1797.7 911.5 1796.6 910.9L1758 877 1782.4 868.8 1802.1 885.6C1803.5 887 1806.4 887 1808.6 885.3 1809.7 883.1 1809.7 880.3 1808.3 878.9L1792.5 865.4 1819.5 856.4C1821.2 855.8 1822.9 852.4 1822.3 850.7 1821.5 848.2 1818.1 846.5 1816.4 847.1L1789.4 856.1 1794.2 836.7C1793.9 835.9 1793.6 835.1 1793.3 834.2 1792.8 832.5 1791.3 831.1 1790.2 830.6 1787.4 830.6 1785.2 832.3 1784 834.5L1779.3 859.5 1754.9 867.7 1765.2 817.4C1766 814.3 1764.3 812.1 1762.4 811.8 1759.3 811 1757 812.6 1755.9 814.9L1744.8 871.1 1722.9 878.5 1681.7 842.6 1685.9 821.5 1742.4 802.6C1744.9 801.7 1746 799.5 1745.2 796.9 1744.3 794.4 1742.1 793.3 1739.5 794.1L1688.1 811.4 1693.7 786.1 1719.8 777.3C1721.5 776.7 1723.2 773.4 1722.4 770.8 1721.5 768.3 1718.4 767.5 1716.7 768L1695.7 775.1 1701.8 745.9C1701.5 745 1701.5 745 1701.2 744.2 1700.7 742.5 1699.2 741.1 1698.1 740.5 1695.3 740.5 1693.1 742.2 1692.8 744.2ZM1712.7 881.9L1717 886.1 1715.9 891.2 1706.9 934.5 1705.8 939.5 1700.8 941.2 1659.5 955.1 1654.4 956.8 1650.5 953.4 1617.3 924.2 1613.3 920.9 1614.1 915 1623.3 872.5 1624.2 866.6 1629.2 864.9 1670.5 851 1675.6 849.3 1679.8 853.6 1712.7 881.9Z" fill="rgba(51, 121, 194, 0.58)"></path><path d="M686 484.7L638.5 541.1 573 546.2 601.3 486.9 670.9 462.7C670.9 462.7 671.7 462.2 671.7 462.2 673.1 461.2 673.6 458.8 673.3 456.8 672.6 454.1 669.6 452.9 667.4 454.4L606.5 475.7 620.2 446.9 646.9 437.2C646.9 437.2 647.7 436.7 647.7 436.7 649.1 435.7 649.6 433.2 649.3 431.2 648.5 428.5 645.6 427.3 643.4 428.8L625 435 635.3 413.9C636.2 412.2 635 408.7 633.2 407.8 631 406.1 628.1 408.1 627.1 409.8L616.8 430.9 610.6 412.5C609.8 409.8 606.9 408.6 604.7 410.1 602 410.9 600.8 413.9 602.3 416.1L612 442.8 597.8 470.9 576.5 410C575.8 407.3 572.8 406.1 570.6 407.6 567.9 408.4 566.7 411.4 568.2 413.6L592.3 483.3 564 542.6 526.3 487.6 539.9 414.7C540.3 412.2 538.8 410 536.4 409.6 533.9 409.1 531.7 410.6 531.2 413.1L519.3 477.4 501.2 451 506.2 423.8C506.7 421.3 505.2 419.1 502.7 418.7 500.2 418.2 498 419.7 497.6 422.2L494.1 440.7 480 420.2C479.3 417.5 476.1 417.5 473.9 419 471.7 420.5 471.2 423 472.7 425.2L485.8 444.3 467.2 440.8C464.8 440.4 462.6 441.9 462.1 444.3S463.2 449 465.6 449.5L492.8 454.5 510.9 480.9 446.7 469C444.2 468.5 442 470 441.5 472.5 441.1 475 442.6 477.2 445.1 477.6L518 491.2 555.2 545.4 489.7 550.5 435.1 503.9C432.8 502.2 430.1 503 427.9 504.5 426.2 506.7 427 509.4 428.5 511.6L477.6 553.4 445.9 555.8 424.4 537.1C422.2 535.4 419.5 536.1 417.3 537.7 415.6 539.9 416.3 542.6 417.3 544.1L432.3 556.4 408.9 558.5C406.9 558.8 404 560.8 404.8 563.5 405.6 566.2 407.1 568.4 409.8 567.6L433.2 565.5 420.8 580.5C419.1 582.7 419.9 585.5 420.9 586.9 422.6 587.9 425.1 588.3 426.6 587.3 426.6 587.3 427.3 586.8 427.3 586.8L446 565.4 477.8 563 436 612.1C434.3 614.4 435.1 617.1 436.1 618.5 437.8 619.5 440.3 619.9 441.8 618.9 441.8 618.9 442.5 618.4 442.5 618.4L490.1 562.1 555.6 557 527.3 616.3 457.6 640.4C454.9 641.2 453.7 644.2 455.2 646.4 456 649.1 459 650.3 461.2 648.8L522 627.5 508.4 656.3 481.6 666C478.9 666.8 477.7 669.7 479.2 671.9 480 674.6 483 675.8 485.2 674.3L503.6 668.2 493.3 689.3C492.3 691 493.6 694.4 495.3 695.4 497.1 696.4 499 696.1 500.5 695.1 501.2 694.6 502 694.1 502.2 692.8L512.5 671.7 518.7 690.1C519.4 692.8 522.4 694 524.6 692.5 524.6 692.5 525.4 692 525.4 692 526.8 691 527.3 688.5 527 686.6L517.3 659.8 530.9 631.1 552.2 691.9C553 694.6 556 695.8 558.2 694.3 558.2 694.3 558.9 693.8 558.9 693.8 560.4 692.8 560.8 690.3 560.6 688.3L536.5 618.6 564.7 559.3 602 613.6 588.4 686.5C587.9 689 589.4 691.2 591.9 691.6 594.4 692.1 596.6 690.6 597.1 688.1L609.5 624.6 627.6 651 622.6 678.1C622.1 680.6 623.6 682.8 626.1 683.3S630.8 682.2 631.2 679.8L634.7 661.2 647.7 680.3C649.2 682.5 651.7 682.9 653.9 681.4 656.1 679.9 656.6 677.4 655.1 675.2L642 656.2 660.5 659.6C661.8 659.9 663 660.1 664.5 659.1S666.2 656.8 666.4 655.6C666.8 653.1 665.3 650.9 662.9 650.5L635.7 645.4 617.6 619 681.8 631C683.1 631.2 684.3 631.5 685.8 630.4 686.5 629.9 687.5 628.2 687.7 627 688.2 624.5 686.7 622.3 684.2 621.8L611.3 608.3 574 554 639.6 549 695.9 596.5C697.7 597.5 700.1 598 701.6 597 701.6 597 702.3 596.4 702.3 596.4 704 594.2 703.3 591.5 702.2 590L653.1 548.3 684.9 545.9 706.3 564.6C708.1 565.6 710.6 566 712 565 712 565 712.8 564.5 712.8 564.5 714.4 562.3 713.7 559.6 712.7 558.1L697.7 545.7 721.1 543.7C721.8 543.2 723.1 543.4 723.8 542.9 725.3 541.9 726.2 540.2 726 538.2 725.2 535.5 723.7 533.3 721 534.1L697.6 536.1 709.9 521.1C711.6 518.9 710.9 516.2 709.9 514.7 707.6 513 704.9 513.8 703.5 514.8L684.8 536.3 653 538.7 694.7 489.5C696.4 487.3 695.7 484.6 694.6 483.1 690.9 482.4 687.7 482.5 686 484.7Z" fill="rgba(51, 121, 194, 0.58)"></path><path d="M1224.3 489.1L1196.4 487.5 1206.2 471.5C1207.3 469.9 1206.9 467.1 1204.9 465.1 1202.5 464.4 1199.7 464.8 1198.5 466.4L1185.3 487.3 1159.4 485.7 1186.7 443.5C1188.2 440.7 1187.8 438 1185.4 437.2 1183.4 435.2 1180.6 435.7 1179 438.5L1149.1 485 1125.6 484.2 1100.7 436 1111.6 418.4 1170.5 421.9C1171.2 421.5 1172 421.1 1172.8 420.7 1173.6 420.3 1174.8 418.7 1175.2 417.5 1175.5 414.3 1173.5 412.3 1170.7 412.8L1117 409.6 1131 388.3 1158.5 389.1C1158.9 389.9 1159.7 389.5 1160.4 389.1 1162 388.2 1163.2 386.6 1163.2 384.6 1163.1 382.7 1161.1 380.7 1158.7 379.9L1136.4 379.5 1153.6 352.6C1154.7 351 1154.3 348.2 1152.3 346.2 1149.9 345.5 1147.1 345.9 1145.9 347.5L1130 372.8 1121.4 356.2C1120.2 353.9 1117 353.5 1115.4 354.3 1113 355.5 1111.5 358.3 1112.7 360.7L1123.8 382 1109.8 403.3 1086.9 359.1C1085.6 356.7 1083.2 356 1080.9 357.2 1078.5 358.4 1077.7 360.8 1079 363.2L1104.3 412.1 1093.1 431 1038.6 428.2 1029.1 410 1059.5 362.3C1061.4 360.3 1060.6 356.7 1058.2 355.9 1056.2 354 1053.8 355.2 1051.8 357.2L1024.2 400.6 1012.4 377.7 1026.4 356.4C1027.6 354.8 1026.7 351.2 1025.1 350.1S1019.9 349.7 1018 351.7L1007.5 368.2 993.2 340.6C991.9 338.2 988.8 337.9 986.4 339.1 984.8 339.9 983.3 342.7 984.5 345.1L998.8 372.7 978.5 372.2C976.5 372.2 974.2 373.4 973.8 376.6 973.8 378.6 976.3 381.4 978.2 381.3L1003.7 382.2 1015.6 405.1 964.2 402.6C961.5 403 959.1 404.3 958.7 407.5 958.8 409.4 961.2 412.2 963.2 412.2L1020.5 414.5 1029.9 432.7 1000.7 478.8 978.8 477.1 953.5 428.2C952.2 425.8 949.9 425.1 947.5 426.3 945.1 427.5 943.6 430.3 944.8 432.7L967.7 476.9 942.2 476.1 931.2 454.8C930 452.4 927.6 451.6 925.2 452.9 922.8 454.1 922.1 456.5 923.3 458.9L931.9 475.4 902.1 473.9C900.1 473.9 897.3 476.3 897.3 478.3 897.8 481.1 899 483.5 901.8 483L932.8 485 921.2 503C920.4 505.4 920.8 508.2 922.4 509.4 924 510.5 926 510.5 927.6 509.7 927.6 509.7 928.4 509.3 928.8 508.1L944 485.2 969.4 486 941.1 531.8C939.1 533.8 939.5 536.5 942.3 538.1 943.5 538.5 944.7 538.9 946.3 538 947.1 537.6 947.9 537.2 948.7 536.8L979.8 486.7 1000.5 488 1025.4 536.1 1012.6 555.8 957.3 553.4C954.1 553 952.1 555.1 952.6 557.8 951.8 560.2 953.8 562.2 957 562.5L1007.1 564.6 993.5 586.7 968.9 585.4C966.9 585.5 964.9 587.5 964.2 589.9 964.6 592.6 965.8 595 968.6 594.6L987.3 595.9 972.5 619.6C970.6 621.6 971.8 623.9 973.8 625.9 975 626.3 977 626.3 978.6 625.4 978.6 625.4 979.4 625 980.2 624.6L996.1 599.3 1006.3 619.1C1007.1 620.7 1009.9 622.2 1012.3 621 1014.7 619.8 1015 616.6 1014.2 615L1001.5 590.5 1015.1 568.5 1040.1 616.6C1041.3 619 1044.5 619.3 1046.9 618.1S1050 614.5 1048.8 612.1L1021.4 559.2 1033 541.2 1087.5 544 1098.2 564.5 1067.1 612.6C1066.3 615 1066.7 617.8 1068.7 619.8 1069.9 620.1 1071.9 620.1 1073.5 619.3 1074.3 618.9 1075.1 618.5 1075.5 617.3L1103.1 573.9 1114.9 596.8 1101.3 618.9C1100.2 620.5 1100.6 623.3 1102.6 625.2 1105 626 1107.8 625.6 1109 624L1119.8 606.3 1132.9 631.6C1133.7 633.1 1137.3 634.3 1138.9 633.5 1141.3 632.2 1142.4 628.6 1141.6 627.1L1128.5 601.8 1148.4 603.5C1149.2 603.1 1150 602.7 1150.8 602.3 1152.4 601.5 1153.5 599.9 1153.9 598.7 1153.5 595.9 1151.5 593.9 1149.1 593.2L1123.6 592.3 1111.8 569.5 1163.1 571.9C1166.3 572.2 1168.2 570.2 1168.2 568.2 1168.5 565.1 1166.5 563.1 1164.1 562.3L1106.8 560 1096.2 539.5 1125.4 493.3 1146.8 494.2 1174.2 547.1C1175.5 549.5 1177.9 550.2 1180.2 549 1182.6 547.8 1183.4 545.4 1182.1 543L1157.2 494.9 1183.1 496.5 1195.7 520.9C1196.6 522.5 1200.1 523.7 1202.5 522.4 1204.9 521.2 1205.2 518 1204.4 516.4L1194.2 496.7 1224 498.3C1224.8 497.9 1224.8 497.9 1225.6 497.4 1227.2 496.6 1228.4 495 1228.7 493.8 1228.3 491 1226.3 489.1 1224.3 489.1ZM1091.3 530L1087.8 534.8 1082.6 534.5 1038.5 532.3 1033.3 532 1030.8 527.3 1010.8 488.6 1008.3 483.9 1011.1 479.5 1034.8 442.1 1037.5 437.7 1043.5 437.6 1086.8 440.2 1092.8 440.1 1095.2 444.9 1115.3 483.5 1117.7 488.3 1114.2 493.1 1091.3 530Z" fill="rgba(51, 121, 194, 0.58)"></path><path d="M208.5 144.3L250.2 159.3 256.9 174.1 242.8 169C241.4 168 240 169.1 239.1 170.4 238.9 171.7 239.6 173.5 240.8 173.7L260.1 181.1 267 195.4 251.2 193.8 238 177.8C238 177.8 237.5 177.5 237.5 177.5 236.6 176.9 235.1 177.1 234 177.7 233 179.1 232.8 180.3 233.9 181.7L243.5 193.2 227.6 191.6 199 158C199 158 198.8 157.2 198.8 157.2 197.9 156.6 196.4 156.8 195.3 157.4 193.9 158.5 193.8 160.5 195.2 161.4L219.9 191 200.6 189.6 189.4 176.4C189.4 176.4 189.4 176.4 189 176.1 188.1 175.5 186.9 175.3 185.8 175.9 184.8 177.2 184.3 178.9 185.4 180.3L192.9 189 178.7 187.9C177 187.4 176.1 188.8 175.9 190 175.4 191.7 176.4 193.1 178.4 193.1L192.3 194.7 183.5 201.4C182.5 202.8 182 204.5 183.4 205.4 184.4 206.8 185.7 207 187.1 206L200.3 194.9 219.4 196.7 189.5 221.9C188.4 222.5 188.4 224.5 189.4 225.9 190.3 226.5 192 227 193.4 226L227 197.3 242.9 198.9 231.4 208.5C230 209.5 230.3 211.1 231.3 212.5 231.9 213.6 233.9 213.6 235 213L250.6 199.5 266.7 200.7 257.5 213.9 237.4 217.4C235.8 217.7 234.9 219.1 235.2 220.6 235 221.8 236.8 223.1 238.3 222.8L253 220.2 243.8 233.4 200 240.8C198.5 241 197.5 242.4 197.8 244 198.1 245.5 199.4 246.5 201 246.2L239.3 239.8 228.5 255.3 211.5 258.3C209.9 258.6 209 259.9 209.3 261.5 209.5 263 210.9 264 212.4 263.7L223.7 262.1 215.8 273.5C214.8 274.9 215.1 276.4 216.5 277.4 217.8 278.3 219.4 278 220.3 276.7L228.3 265.3 230.2 276.1C230.5 277.7 231.8 278.6 233.4 278.4S235.9 276.7 235.6 275.2L232.7 258.9 243.9 243 250.6 280.9C250.9 282.5 252.2 283.4 253.8 283.1 255.3 282.9 256.3 281.5 256 279.9L248.4 236.6 257.6 223.4 260.2 238.1C260.5 239.7 261.8 240.6 263.4 240.4 264.9 240.1 265.9 238.7 265.6 237.2L262 217 271 204.3 277.4 218.3 270.5 237.9C270.3 239.1 271.1 241 272.3 241.2 274 241.7 275.1 241.1 276 239.7L281.1 225.6 287.6 239.7 272.6 281.4C272.1 283.1 272.7 284.2 274.1 285.1 275.8 285.6 277.2 284.6 277.8 283.7L291.3 247 299.2 264.7 293.6 280.5C292.6 281.9 293.7 283.3 295.1 284.2 296.3 284.4 298.2 283.7 298.7 282L302.4 271.7 308.6 284.2C308.9 285.8 310.6 286.3 312.4 285.5 313.5 284.9 314 283.3 313.4 282.2L307.6 269.2 318.3 273.3C320 273.8 321.4 272.8 321.5 271.6 322.5 270.2 321.9 269.1 321 268.5 320.5 268.1 320.5 268.1 320.1 267.8L304.3 262.2 296.4 244.5 332.6 257.6C334 258.6 335.4 257.5 336.4 256.2 336.6 254.9 336 253.9 335.1 253.2 334.6 252.9 334.6 252.9 334.6 252.9L292.7 237.2 286.3 223.1 300.3 228.2C302 228.7 303.1 228.1 304.1 226.8 304.2 225.6 304 224 303.1 223.4 302.6 223 302.6 223 302.1 222.7L282.6 215.8 276.1 201.8 291.5 203.1 305 218.6C306.1 220 308.1 220.1 309.2 219.5 310.1 218.1 310.6 216.4 309.2 215.5L299.6 204 315.3 204.8 344.2 239.2C344.8 240.3 346.8 240.4 347.8 239.8 348.8 238.4 349.3 236.7 348.3 235.3L323.5 205.8 342.6 207.6 353.2 220.5C354.3 221.9 356.3 221.9 357.2 220.6 358.3 220 358.8 218.3 357.8 216.9L350.3 208.2 364.4 209.3C365.6 209.5 367 208.5 367.5 206.8 367.4 206 366.8 204.9 365.9 204.3 365.9 204.3 365.5 204 365 203.6L350.8 202.6 359.5 195C360.6 194.5 360.6 192.5 360 191.4 359.6 191 359.6 191 359.6 191 358.2 190.1 356.7 190.4 356 191.3L343.1 201.9 323.8 200.6 353.6 175.3C354.6 174 354.7 172.7 353.7 171.3 353.7 171.3 353.2 171 353.2 171 352.3 170.4 351.1 170.2 349.7 171.2L315.6 199.6 300.2 198.3 311.7 188.7C312.7 187.4 313.2 185.7 311.8 184.7 312.1 184.3 311.7 184 311.7 184 310.7 183.3 309.2 183.6 308.1 184.2L292.5 197.7 276.7 196.1 285.6 183.4 305.7 179.8C307.3 179.5 308.6 177.7 308.3 176.2 307.7 175.1 306.3 174.1 305.1 173.9L290.1 177 299.3 163.8 342.6 156.1C344.2 155.9 345.1 154.5 344.9 152.9 344.6 151.4 343.2 150.4 341.7 150.7L303.8 157.4 314.9 141.5 331.2 138.6C332.7 138.3 333.7 137 333.4 135.4S331.8 132.9 330.2 133.2L319.4 135.1 327.3 123.7C328.3 122.4 328 120.8 326.7 119.9 325.3 118.9 323.7 119.2 322.8 120.5L314.8 131.9 312.5 120.8C312.3 120 312.2 119.2 311.7 118.9 311.3 118.6 310 118.4 309.3 118.5 307.7 118.8 306.8 120.2 307 121.7L310.4 138.3 299.2 154.2 292.1 116C291.9 115.2 291.8 114.5 291.3 114.1 290.9 113.8 289.7 113.6 288.9 113.8 287.3 114 286.4 115.4 286.6 117L294.8 160.6 285.5 173.8 283.2 158.7C283.1 157.9 282.2 157.2 281.7 156.9 281.3 156.6 280.8 156.3 280.1 156.4 278.5 156.7 277.2 158.5 277.8 159.6L281.1 180.2 272.1 192.9 265.2 178.6 272.6 159.3C272.8 158.1 272.5 156.6 271.6 155.9 271.1 155.6 271.1 155.6 270.8 156.1 269.5 155.1 267.6 155.8 267.1 157.5L262 171.6 255.1 157.2 270.8 115.4C271 114.1 270.4 113.1 269.5 112.4 269 112.1 269 112.1 269 112.1 267.4 111.6 265.8 111.9 265.3 113.6L251.8 150.2 243.9 132.5 249.5 116.7C250 115.1 249.4 114 248.5 113.3 248.5 113.3 248.1 113 248.1 113 246.4 112.5 245 113.6 244.3 114.5L240.7 125.5 234.8 112.6C234.4 112.2 233.9 111.9 233.4 111.6 233 111.3 231.8 111.1 231 111.2 229.6 112.3 228.6 113.7 229.7 115.1L235.5 128 224.8 123.9C223.2 123.4 221.8 124.4 221.1 125.3 220.6 127 221.7 128.4 223 129.4L238.8 135 247 152.3 210.8 139.1C209.1 138.6 207.2 139.4 207.1 140.6 206.6 142.3 206.8 143.8 208.5 144.3Z" fill="rgba(51, 121, 194, 0.58)"></path><path d="M192.3 940.5L211.6 942.1 205.4 952C204.6 953 204.9 954.8 206.1 956 207.6 956.5 209.3 956.3 209.8 954.8L218.1 942.7 233.3 943.2 216 968.5C215.5 970 215.7 971.7 216.7 972.5 218.4 973.5 220.2 973.2 220.7 971.7L239.7 943.8 262.8 945.4 245.6 965.7 272.1 964.3 259.4 983.6 225.6 981.7C225.4 981.2 224.9 981.5 224.4 981.7 223.4 982.2 222.6 983.2 222.6 984.4 222.6 985.7 223.8 986.9 225.3 987.4L255.9 989.1 247.1 1001.5 232.5 1000.6C231.7 1000.4 231.2 1000.6 230.7 1000.9 230.2 1001.1 229.5 1002.1 229.5 1003.3 229.4 1004.6 230.7 1005.8 231.9 1005.8L243.6 1006.9 233.1 1023.2C231.8 1024.5 232.6 1026 233.8 1027.2 234.8 1028 236.5 1027.7 237.5 1026L248.3 1010.2 253.5 1020.6C254.2 1022.1 256.2 1022.4 257.2 1021.9 258.7 1021.1 259.2 1019.7 258.4 1018.2L251.8 1004.7 260.6 992.3 273.8 1019.2C274.6 1020.7 276.1 1021.2 277.6 1020.5 278.6 1020 279.6 1018.3 278.8 1016.8L264.1 986.9 276.9 967.6 285.9 992.2 298 968.9 308.3 989.9 289.8 1017.6C288.8 1019.3 289.5 1020.8 290.5 1021.6 291.5 1022.3 293.2 1022.1 294.5 1020.8L311 995.3 317.6 1008.8 309.6 1021.4C308.4 1022.6 308.6 1024.4 310.3 1025.4 311.3 1026.1 313.1 1025.9 314.1 1024.2L320.6 1014.8 329.2 1032.2C329.9 1033.7 331.4 1034.2 332.9 1033.5S334.9 1031.2 334.2 1029.7L325.6 1012.3 337 1012.9C339 1013.1 340.2 1011.9 340.2 1010.6 340.5 1008.7 339.3 1007.4 337.5 1007.6L322.6 1006.3 316 992.9 346.3 995.3C348 995 349.3 993.8 349.3 992.6 349.5 990.6 348.3 989.3 346.6 989.6L313.3 987.4 302.9 966.5 328.8 971.1 314.7 948.9 337.8 950.5 352.6 980.4C353.3 981.9 355.3 982.2 356.3 981.7 357.8 980.9 358.3 979.4 357.5 977.9L344 950.5 359.4 951.6 366.1 965.1C366.8 966.6 368.3 967.1 369.8 966.3 370.8 965.8 371.8 964.1 371 962.6L365.9 952.1 385 953.2C387 953.5 388.2 952.3 388 950.5 388 949.3 387.3 947.8 385.5 948L366.2 946.4 372.4 936.5C373.2 935.5 372.9 933.8 371.9 933 371 932.3 369.7 932.3 369.2 932.5 368.7 932.8 368.2 933 368 933.8L359.7 945.9 344.6 945.3 361.8 920.1C362.3 918.6 362.1 916.8 361.1 916.1 360.1 915.3 358.9 915.3 357.9 915.8 357.4 916.1 357.4 916.1 357.1 916.8L338.1 944.8 315 943.2 332.2 922.9 305.7 924.2 318.4 904.9 352.2 906.9C353.5 906.9 354.9 906.1 355.2 904.1 355.2 902.9 354 901.6 352.5 901.1L321.9 899.5 330.7 887.1 345.4 887.9C346.8 888.4 348.1 887.2 348.4 885.2 348.4 884 347.1 882.7 345.6 882.2L334.2 881.7 344.7 865.3C346 864.1 345.2 862.6 344 861.3 343.3 861.1 342 861.1 341.5 861.3 341 861.6 340.5 861.8 340.3 862.6L329.5 878.4 324.3 867.9C323.6 866.5 321.6 866.2 320.6 866.7L320.6 866.7C319.1 867.4 318.6 868.9 319.4 870.4L326 883.9 317.2 896.2 304 869.3C303.2 867.8 301.7 867.3 300.2 868.1S298.2 870.3 299 871.8L313.7 901.7 301 921 291.9 896.3 279.8 919.6 269.5 898.7 288.1 871C289.1 869.2 288.3 867.8 287.3 867 286.3 866.3 284.6 866.5 283.3 867.7L266.6 892.7 260.2 879.8 268.2 867.2C269.4 865.9 269.2 864.2 267.5 863.2 266.5 862.4 264.7 862.7 263.5 863.9L257.2 873.8 248.6 856.4C247.9 854.9 246.4 854.4 244.9 855.1S242.9 857.3 243.6 858.8L252.2 876.3 240.8 875.7C240.1 875.4 239.6 875.7 239.1 875.9 238.1 876.4 237.8 877.2 237.6 877.9 237.3 879.9 238.6 881.2 240.3 880.9L255.2 882.2 261.8 895.7 231.5 893.3C231 893.5 230.5 893.8 230 894 229 894.5 228.8 895.3 228.5 896 228.3 898 229.5 899.2 231.3 899L264.5 901.2 274.9 922.1 249 917.5 263.1 939.7 240 938.1 225.2 908.2C224.5 906.7 222.5 906.4 221.5 906.9 220 907.6 219.5 909.1 220.3 910.6L233.5 937.5 218.4 936.9 211.7 923.5C211 922 209.5 921.5 208 922.2S206 924.5 206.8 926L211.9 936.4 192.8 935.3C192.1 935.1 191.6 935.3 191.1 935.6 190.6 935.8 189.8 936.8 189.8 938 189.8 939.3 190.5 940.8 192.3 940.5ZM260.2 925L281.3 928.8 291.1 909.8 298.7 930.2 319.8 929 306.3 945.6 317.6 963.6 296.5 959.7 286.7 978.8 279.4 958.9 258 959.5 271.8 943.4 260.2 925Z" fill="rgba(51, 121, 194, 0.58)"></path><path d="M2006.7 579.4L1992.1 589 1991 577.4C1991 576.1 1989.7 574.9 1988 574.7 1986.5 575.2 1985.2 576.4 1985.3 577.7L1986.5 593.1 1972.9 601.9 1970.8 570.7C1970.5 568.7 1969.2 567.5 1967.7 568 1966 567.7 1964.8 569 1965 571L1967.5 605.5 1955.4 613.9 1924.9 599.1 1923.8 586.2 1954.5 565.9C1954.8 565.4 1955 564.9 1955.3 564.4 1955.5 563.9 1955.5 562.7 1955.2 561.9 1954.2 560.2 1952.5 560 1951.2 561.2L1923.2 579.8 1922.2 563.9 1936.2 554C1936.7 554.2 1937 553.7 1937.2 553.2 1937.7 552.2 1937.7 551 1936.9 550 1936.2 549 1934.4 548.8 1933 549.3L1921.6 557.4 1920.1 537.6C1920.1 536.3 1918.8 535.1 1917.1 534.9 1915.6 535.4 1914.4 536.6 1914.4 537.9L1915.9 556.5 1905.4 551.4C1903.9 550.7 1902.2 551.7 1901.7 552.7 1901 554.2 1901.2 556.2 1902.7 556.9L1916.2 563.4 1917.2 579.3 1889.2 565.8C1887.7 565.1 1886.2 565.6 1885.5 567.1 1884.8 568.6 1885.3 570.1 1886.8 570.8L1917.8 585.8 1919.2 599.4 1890.9 618.4 1879.4 612.9 1876.7 577.6C1876.9 575.9 1875.1 574.4 1873.7 574.9 1871.9 574.7 1871.2 576.2 1871 578L1873.4 610 1858.9 603 1857.9 587.1C1857.9 585.8 1856.1 584.4 1854.9 584.4S1852.2 586.2 1852 587.9L1852.9 600.1 1835.4 591.6C1833.9 590.9 1832.1 591.9 1831.4 593.4 1830.9 594.4 1831.2 596.4 1832.7 597.1L1850.2 605.6 1839.9 612.9C1838.9 613.7 1838.2 615.2 1839.2 616.9 1839.9 617.9 1842.2 618.4 1843.2 617.6L1856.2 608.5 1870.7 615.5 1844.1 633.5C1842.9 634.7 1842.2 636.2 1843.2 638 1844 639 1846.2 639.4 1847.2 638.7L1876.7 618.4 1888.2 623.9 1890.9 658 1879.3 665.3 1848.3 650.3C1846.8 649.6 1845.3 650.1 1844.6 651.6 1843.9 653.1 1844.2 655.1 1845.7 655.8L1873.7 669.4 1860.6 678.5 1847.1 672C1845.6 671.2 1844.1 671.7 1843.4 673.2 1842.7 674.7 1843.2 676.2 1844.7 677L1855.2 682 1839.7 692.4C1838.7 693.2 1838.2 695.4 1839 696.4 1840.3 697.6 1841.8 698.4 1843 697.1L1859.2 686.5 1860.2 699.9C1860.7 701.3 1861.9 702.6 1863.2 702.6 1864.4 702.5 1865.4 701.8 1865.9 700.8 1865.9 700.8 1866.1 700.3 1865.9 699.5L1864.9 682.4 1878 673.3 1880.9 706.8C1880.7 708.5 1881.9 709.8 1883.9 709.5 1884.6 709.2 1885.4 709 1885.9 708 1886.1 707.5 1886.4 707 1886.6 706.5L1883.4 669.7 1894.2 662.6 1924.7 677.4 1925.7 692 1897.1 711.5C1895.4 712.6 1895.1 714.3 1896.4 715.5 1896.9 717 1898.7 717.2 1900.4 716.2L1926.2 698.5 1927.7 714.6 1914.9 723.2C1913.9 724 1913.7 725.7 1914.2 727.2 1915.5 728.4 1917 729.2 1918.2 727.9L1928 721.6 1929.5 738.9C1929.3 740.7 1930.8 741.4 1932.5 741.6 1933.3 741.4 1934.3 740.6 1934.7 739.6 1934.7 739.6 1935 739.1 1935.2 738.6L1933.7 720 1946.2 726C1947.2 726.5 1949.2 726.3 1950 724.7 1950.7 723.2 1949.7 721.5 1948.7 721L1933.2 713.5 1931.7 697.4 1962.2 712.2C1963.7 712.9 1965.4 711.9 1966.2 710.4S1966.4 707.4 1964.9 706.7L1931.4 690.5 1930.4 677.1 1958.8 658 1971.8 664.3 1974.2 700.1C1974.7 701.6 1976 702.8 1977.7 703 1978.5 702.8 1979.5 702 1979.9 701 1980.2 700.5 1980.4 700 1980.2 699.3L1977.8 667.2 1992.3 674.2 1993.7 690.4C1993.7 691.6 1995 692.8 1996.7 693.1 1998.2 692.5 1999.4 691.3 1999.4 690L1998.3 677.1 2014.3 684.9C2015.3 685.4 2017.5 684.6 2018 683.6 2018.7 682.1 2017.9 679.9 2016.9 679.4L2000.9 671.6 2011.5 665C2011.8 664.5 2012 664 2012.2 663.5 2012.7 662.5 2012.7 661.3 2012.5 660.6 2011.2 659.3 2009.5 659.1 2008 659.6L1994.9 668.7 1980.4 661.7 2007 643.7C2008.7 642.7 2009 641 2008.2 640 2007.2 638.3 2005.4 638 2004 638.6L1974.4 658.8 1961.4 652.5 1958.7 618.5 1969.8 610.9 2003.3 627.1C2004.8 627.9 2006.3 627.3 2007 625.8 2007.7 624.3 2007.2 622.9 2005.7 622.1L1975.2 607.4 1988.8 598.5 2004.3 606C2005.3 606.5 2007.5 605.7 2008.2 604.2 2009 602.7 2007.9 601 2006.9 600.5L1994.4 594.5 2009.9 584.1C2010.2 583.6 2010.2 583.6 2010.4 583.1 2010.9 582.1 2010.9 580.8 2010.6 580.1 2009.4 578.8 2007.6 578.6 2006.7 579.4ZM1955.4 649.6L1955.5 653.4 1952.8 655.1 1929.8 670.6 1927.1 672.4 1924.1 670.9 1899.6 659.1 1896.6 657.6 1896.3 654.4 1894.2 626.8 1893.9 623.6 1896.9 621.3 1919.5 606.4 1922.5 604.1 1925.5 605.6 1950 617.4 1953 618.9 1953.1 622.6 1955.4 649.6Z" fill="rgba(51, 121, 194, 0.58)"></path><path d="M1493.4 468.8L1457.9 508.4 1438.4 509.1 1450.5 495.7C1452.2 494.7 1451.6 492.6 1450.5 490.9 1449.3 490.2 1446.9 490.1 1446.1 491.4L1429.2 509.5 1410.1 510.7 1419.1 493.8 1442.8 486.4C1442.8 486.4 1443.4 486 1443.4 486 1444.5 485.3 1444.9 483.5 1444.8 482 1443.7 480.3 1442.4 479.5 1440.4 480.1L1423.3 485.5 1432.2 468.7 1482.6 452C1482.6 452 1483.5 452.2 1483.5 452.2 1484.6 451.5 1485 449.6 1484.8 448.2 1484.3 446.1 1482.1 445.2 1480.4 446.3L1436.4 460.4 1446.7 439.5 1466.4 433.1C1466.4 433.1 1466.4 433.1 1466.9 432.7 1468.1 432 1468.8 430.7 1468.6 429.3 1467.6 427.6 1465.9 426.3 1463.9 426.8L1450.9 431.2 1458.5 416C1459.8 414.3 1458.7 412.6 1457.4 411.9 1455.8 410.6 1453.8 411.1 1452.8 413.3L1444.8 428 1441.3 415.2C1440.2 413.5 1438.6 412.2 1436.9 413.3 1434.9 413.8 1434.1 415.1 1434.6 417.1L1441 436.8 1430.3 457.2 1415.8 412.6C1415.7 411.1 1413.5 410.1 1411.4 410.7 1410.3 411.4 1409 413 1409.5 415.1L1426.1 465.4 1417.2 482.3 1411.7 465.2C1411.2 463.2 1409.4 462.8 1407.3 463.3 1405.8 463.5 1404.9 465.7 1405 467.2L1413 490.6 1404.4 508 1393.9 491.8 1399.1 467.8C1399.5 466 1398.4 464.3 1396.6 463.9 1395.3 463.1 1393.1 464.6 1392.7 466.4L1388.9 483.9 1378.4 467.7 1390.1 415.7C1390.5 413.9 1389.4 412.2 1387.5 411.8 1385.7 411.4 1384 412.5 1383.6 414.3L1373.3 459.8 1361 440.8 1365.4 420.5C1365.8 418.7 1364.7 417 1362.9 416.6 1361 416.2 1359.4 417.3 1359 419.1L1355.6 432.4 1346.6 418.4C1345.5 416.7 1343.6 416.3 1342 417.4 1340.3 418.5 1339.9 420.3 1341 422L1350 436 1337.1 433.2C1335.3 432.8 1333.6 433.9 1333.2 435.8S1333.9 439.3 1335.7 439.7L1355.1 443.9 1367.7 463.5 1322.6 453.7C1320.7 453.3 1319 454.4 1318.7 456.3 1318.3 458.1 1319.3 459.8 1321.2 460.2L1372.8 471.3 1383.3 487.5 1365.8 483.8C1363.9 483.4 1362.2 484.5 1361.9 486.3 1361.5 488.1 1362.5 489.8 1364.4 490.2L1388.3 495.4 1398.5 511.1 1380 511.9 1361.4 495.4C1360.1 494.6 1357.7 494.6 1356.9 495.8 1355.6 497.5 1355.7 499 1356.8 500.7L1370.2 512.7 1351.7 513.5 1312 478C1310.4 476.7 1308.9 476.8 1307.2 477.9 1305.9 479.6 1306.4 481.6 1307.2 482.7L1341.8 514.3 1318.5 515.1 1303.6 501.7C1302.5 500 1300.4 500.6 1298.8 501.7 1298 502.9 1298 505.3 1299.6 506.7L1309.3 515.5 1292.6 516.7C1290.8 516.3 1289.5 518 1289.4 520.4 1289.6 521.9 1291.2 523.2 1292.7 523L1309.7 522.3 1300.3 532.4C1299 534 1299.5 536.1 1300.8 536.8 1301.9 538.5 1303.4 538.3 1304.5 537.6 1305.1 537.2 1305.1 537.2 1305.6 536.9L1319 521.9 1342.3 521.2 1311.3 555.5C1309.6 556.5 1310.1 558.6 1311.2 560.3 1312.5 561 1314 560.9 1315.1 560.1 1315.7 559.8 1315.7 559.8 1315.7 559.8L1352.1 520.4 1370.6 519.5 1358.6 532.9C1357.3 534.5 1357.4 536 1358.5 537.7 1359.8 538.4 1361.6 538.8 1362.8 538.1 1363.3 537.7 1363.3 537.7 1363.9 537.4L1380.4 518.8 1398.9 517.9 1390.5 534.4 1367.1 542.4C1365.1 542.9 1364.1 545.1 1364.3 546.6 1365.4 548.3 1367 549.6 1368.7 548.5L1385.8 543.1 1377.8 560.1 1326.5 576.6C1325 576.7 1324.1 578.9 1324.2 580.4 1325.3 582.1 1327 583.4 1329 582.9L1373 568.8 1362.4 589.1 1343.2 595.1C1341.2 595.7 1340.2 597.9 1341.3 599.5 1341.5 601 1343.1 602.3 1345.2 601.8L1358.2 597.4 1350.6 612.6C1349.8 613.9 1350.3 615.9 1352 617.3 1352.9 617.5 1354.4 617.3 1355.5 616.6 1355.5 616.6 1356.1 616.2 1356.6 615.9L1364.2 600.6 1368.7 613.6C1368.8 615.1 1371 616.1 1372.5 615.9 1373.1 615.5 1373.1 615.5 1373.1 615.5 1374.8 614.5 1375.2 612.6 1374.4 611.5L1368.4 592.4 1378.7 571.4 1393.2 616C1394.3 617.7 1395.6 618.5 1397.6 617.9 1397.6 617.9 1398.2 617.6 1398.2 617.6 1399.3 616.9 1400.1 615.6 1399.6 613.5L1383.5 562.8 1391.9 546.3 1397.3 563.4C1398.4 565.1 1400.1 566.4 1401.7 565.3 1402.1 565.9 1402.7 565.5 1402.7 565.5 1403.8 564.8 1404.2 562.9 1404 561.4L1396 538 1405 521.1 1415.1 536.8 1409.9 560.8C1409.6 562.6 1411 564.9 1412.8 565.3 1414.3 565.1 1416 564 1416.8 562.7L1420.2 544.7 1430.7 560.9 1419.5 612.5C1419.1 614.4 1420.2 616 1422.1 616.4 1423.9 616.8 1425.6 615.8 1426 613.9L1435.7 568.8 1448.4 588.4 1444.2 607.7C1443.8 609.6 1444.9 611.2 1446.7 611.6S1450.3 610.9 1450.7 609.1L1453.4 596.2 1462.5 610.2C1463.6 611.9 1465.4 612.3 1467.1 611.2 1468.8 610.1 1469.2 608.3 1468.1 606.6L1459 592.6 1472.5 595C1473.4 595.2 1474.3 595.4 1474.9 595 1475.5 594.7 1476.2 593.4 1476.4 592.5 1476.8 590.6 1475.7 588.9 1473.9 588.5L1454 584.7 1441.3 565.1 1487 574.5C1488 574.7 1488.9 574.9 1489.4 574.5 1490 574.2 1490.8 572.9 1491 572 1491.4 570.1 1490.3 568.4 1488.4 568L1436.3 557.3 1425.8 541.1 1443.6 545.4C1444.6 545.6 1445.7 544.9 1446.2 544.5 1446.8 544.1 1447.4 543.8 1447.6 542.9 1448 541 1446.5 538.8 1445 538.9L1420.7 533.2 1410.6 517.5 1429.6 516.3 1447.7 533.2C1449 534 1450.8 534.4 1452 533.7 1452.5 533.3 1452.5 533.3 1452.2 532.7 1453.8 531.7 1453.9 529.3 1452.2 527.9L1438.9 515.9 1458 514.7 1497.4 551.2C1498.7 551.9 1500.1 551.8 1501.3 551 1501.8 550.7 1501.8 550.7 1501.8 550.7 1503.1 549 1503.5 547.2 1501.9 545.9L1467.2 514.3 1490.5 513.5 1505.5 526.9C1507.1 528.2 1508.6 528 1509.7 527.3 1509.7 527.3 1510.3 526.9 1510.3 526.9 1511.6 525.3 1511.1 523.3 1510.4 522.1L1499.8 513.1 1516.8 512.4C1517.4 512.1 1517.9 511.7 1518.5 511.3 1519 511 1519.8 509.7 1520 508.8 1519.5 506.7 1518.4 505.1 1516.3 505.6L1499.3 506.3 1508.7 496.2C1510 494.6 1509.5 492.5 1508.8 491.4 1507.1 490.1 1505.1 490.6 1503.4 491.7L1490.1 506.7 1467.1 508 1498.1 473.7C1499.5 472 1499.5 469.6 1498.2 468.9 1496.6 467.6 1494.7 467.2 1493.4 468.8Z" fill="rgba(51, 121, 194, 0.58)"></path><path d="M2033.6 902.6L2018 901.6 2022.9 893.6C2023.5 892.8 2023.3 891.4 2022.3 890.4 2021.1 890 2019.7 890.2 2019.3 891.4L2012.9 901.2 2000.7 901 2014.2 880.5C2014.6 879.3 2014.4 878 2013.6 877.4 2012.2 876.6 2010.8 876.8 2010.4 878L1995.6 900.6 1977.1 899.6 1990.6 883.2 1969.4 884.6 1979.3 869 2006.4 870.1C2006.6 870.5 2007 870.3 2007.4 870.1 2008.1 869.7 2008.7 868.9 2008.7 867.9 2008.7 866.9 2007.7 865.9 2006.5 865.5L1982.1 864.6 1988.9 854.6 2000.6 855.1C2001.2 855.2 2001.6 855 2002 854.8 2002.4 854.6 2003 853.8 2003 852.8 2003 851.8 2002 850.9 2001 850.9L1991.6 850.2 1999.8 837C2000.8 836 2000.2 834.8 1999.2 833.8 1998.4 833.2 1997 833.4 1996.2 834.8L1987.8 847.6 1983.6 839.3C1983 838.1 1981.4 838 1980.6 838.4 1979.4 839 1979 840.2 1979.6 841.4L1985.1 852 1978.2 862.1 1967.3 840.7C1966.7 839.5 1965.5 839.1 1964.3 839.7 1963.5 840.2 1962.7 841.6 1963.3 842.7L1975.5 866.5 1965.5 882.1 1958 862.5 1948.6 881.3 1940.1 864.7 1954.6 842.2C1955.4 840.8 1954.7 839.6 1953.9 839.1 1953.1 838.5 1951.8 838.7 1950.8 839.7L1937.9 860.3 1932.4 849.6 1938.6 839.4C1939.6 838.4 1939.4 837 1938 836.3 1937.2 835.7 1935.8 835.9 1935 837.3L1930 844.9 1922.9 831.1C1922.2 829.9 1921 829.5 1919.9 830.1S1918.3 831.9 1918.9 833.1L1926 846.9 1916.9 846.6C1915.3 846.4 1914.3 847.4 1914.3 848.4 1914.1 850 1915.1 851 1916.5 850.8L1928.4 851.7 1933.9 862.3 1909.7 860.8C1908.3 861 1907.3 862 1907.3 863 1907.1 864.6 1908.1 865.6 1909.5 865.4L1936.2 866.7 1944.7 883.3 1924 879.9 1935.5 897.5 1917 896.5 1904.8 872.8C1904.2 871.6 1902.6 871.4 1901.8 871.8 1900.6 872.4 1900.3 873.6 1900.9 874.8L1912 896.6 1899.7 895.9 1894.2 885.2C1893.6 884 1892.4 883.7 1891.2 884.3 1890.4 884.7 1889.7 886.1 1890.3 887.3L1894.5 895.6 1879.2 894.9C1877.6 894.8 1876.6 895.8 1876.9 897.1 1876.9 898.1 1877.5 899.3 1878.9 899.1L1894.4 900.1 1889.5 908.1C1888.9 908.9 1889.1 910.3 1889.9 910.9 1890.7 911.5 1891.7 911.5 1892.1 911.3 1892.5 911.1 1892.9 910.9 1893.1 910.3L1899.6 900.5 1911.7 900.7 1898.2 921.2C1897.8 922.4 1898 923.8 1898.8 924.3 1899.6 924.9 1900.6 924.9 1901.4 924.5 1901.8 924.3 1901.8 924.3 1902 923.7L1916.9 901.1 1935.4 902.1 1921.8 918.5 1943.1 917.1 1933.1 932.7 1906.1 931.6C1905.1 931.6 1903.9 932.2 1903.7 933.8 1903.7 934.8 1904.7 935.8 1905.9 936.2L1930.4 937.1 1923.5 947.1 1911.8 946.7C1910.6 946.3 1909.6 947.3 1909.4 948.9 1909.4 949.9 1910.4 950.8 1911.6 951.2L1920.8 951.5 1912.6 964.7C1911.6 965.7 1912.2 966.9 1913.2 967.9 1913.8 968.1 1914.8 968.1 1915.2 967.9 1915.6 967.7 1916 967.5 1916.2 966.9L1924.6 954.1 1928.9 962.4C1929.5 963.6 1931.1 963.7 1931.8 963.3L1931.8 963.3C1933 962.7 1933.4 961.5 1932.8 960.3L1927.3 949.7 1934.2 939.7 1945.1 961C1945.7 962.2 1946.9 962.6 1948.1 962S1949.7 960.2 1949.1 959L1936.9 935.3 1946.9 919.6 1954.4 939.2 1963.8 920.5 1972.3 937.1 1957.8 959.5C1957.1 960.9 1957.7 962.1 1958.5 962.6 1959.3 963.2 1960.7 963 1961.6 962L1974.7 941.8 1980 952.1 1973.8 962.3C1972.8 963.3 1973 964.7 1974.4 965.5 1975.2 966 1976.6 965.8 1977.6 964.8L1982.5 956.8 1989.6 970.7C1990.2 971.8 1991.4 972.2 1992.6 971.6S1994.1 969.8 1993.5 968.6L1986.4 954.8 1995.6 955.1C1996.2 955.3 1996.6 955.1 1997 954.9 1997.7 954.5 1997.9 953.9 1998.1 953.3 1998.3 951.7 1997.3 950.7 1995.9 950.9L1984 950 1978.5 939.4 2002.8 940.9C2003.2 940.7 2003.6 940.5 2003.9 940.3 2004.7 939.9 2004.9 939.3 2005.1 938.7 2005.3 937.1 2004.3 936.1 2002.9 936.3L1976.3 935 1967.7 918.4 1988.4 921.8 1976.9 904.2 1995.4 905.2 2007.6 928.9C2008.2 930.1 2009.8 930.3 2010.6 929.9 2011.8 929.3 2012.2 928.1 2011.6 926.9L2000.6 905.5 2012.7 905.8 2018.2 916.5C2018.8 917.7 2020 918 2021.2 917.4S2022.8 915.6 2022.2 914.4L2017.9 906.1 2033.2 906.8C2033.8 907 2034.2 906.8 2034.6 906.6 2035 906.4 2035.6 905.6 2035.6 904.6 2035.6 903.6 2034.9 902.4 2033.6 902.6ZM1979.4 915.9L1962.5 913.1 1954.9 928.5 1948.6 912.3 1931.7 913.4 1942.3 900 1933 885.8 1949.9 888.6 1957.5 873.2 1963.6 889 1980.7 888.3 1969.9 901.3 1979.4 915.9Z" fill="rgba(51, 121, 194, 0.58)"></path></g><defs><mask id="SvgjsMask2194"><rect width="2000" height="1000" fill="#ffffff"></rect></mask><linearGradient x1="100%" y1="50%" x2="0%" y2="50%" gradientUnits="userSpaceOnUse" id="SvgjsLinearGradient2195"><stop stop-color="#0e2a47" offset="0"></stop><stop stop-color="rgba(3, 16, 34, 1)" offset="0.03"></stop><stop stop-color="rgba(0, 52, 119, 1)" offset="0.33"></stop><stop stop-color="rgba(0, 52, 119, 1)" offset="1"></stop></linearGradient><filter id="SvgjsFilter2196"><feGaussianBlur stdDeviation="1"></feGaussianBlur></filter></defs></svg>